STARTFONT 2.1
COMMENT
COMMENT Converted from OpenType font "7segment.ttf" by "otf2bdf 3.0".
COMMENT
FONT -FreeType-Seven Segment-Medium-R-Normal--89-640-100-100-P-290-ISO10646-1
SIZE 64 100 100
FONTBOUNDINGBOX 205 89 0 -12
STARTPROPERTIES 19
FOUNDRY "FreeType"
FAMILY_NAME "Seven Segment"
WEIGHT_NAME "Medium"
SLANT "R"
SETWIDTH_NAME "Normal"
ADD_STYLE_NAME ""
PIXEL_SIZE 89
POINT_SIZE 640
RESOLUTION_X 100
RESOLUTION_Y 100
SPACING "P"
AVERAGE_WIDTH 290
CHARSET_REGISTRY "ISO10646"
CHARSET_ENCODING "1"
FONT_ASCENT 76
FONT_DESCENT 15
COPYRIGHT "-FreeType-Seven Segment-Medium-R-Normal--89-640-100-100-P-290-ISO10646-1"
_OTF_FONTFILE "7segment.ttf"
_OTF_PSNAME "SevenSegmentRegular"
ENDPROPERTIES
CHARS 164
STARTCHAR 0000
ENCODING 0
SWIDTH 0 0
DWIDTH 0 0
BBX 0 0 0 0
BITMAP
ENDCHAR
STARTCHAR 000A
ENCODING 10
SWIDTH 483 0
DWIDTH 43 0
BBX 0 0 0 0
BITMAP
ENDCHAR
STARTCHAR 000D
ENCODING 13
SWIDTH 483 0
DWIDTH 43 0
BBX 0 0 0 0
BITMAP
ENDCHAR
STARTCHAR 0020
ENCODING 32
SWIDTH 303 0
DWIDTH 27 0
BBX 0 0 0 0
BITMAP
ENDCHAR
STARTCHAR 0021
ENCODING 33
SWIDTH 180 0
DWIDTH 16 0
BBX 6 62 5 0
BITMAP
10
38
7C
FC
FC
FC
FC
FC
FC
FC
FC
FC
FC
FC
FC
FC
FC
FC
FC
FC
FC
FC
FC
FC
FC
FC
FC
FC
FC
FC
FC
FC
FC
FC
FC
FC
FC
FC
FC
FC
FC
FC
FC
FC
FC
FC
FC
FC
7C
38
10
00
00
00
30
78
FC
FC
FC
7C
38
10
ENDCHAR
STARTCHAR 0022
ENCODING 34
SWIDTH 281 0
DWIDTH 25 0
BBX 15 9 5 53
BITMAP
1010
3838
7C7C
FC7E
FC7E
FC7E
7C7C
3838
1010
ENDCHAR
STARTCHAR 0023
ENCODING 35
SWIDTH 551 0
DWIDTH 49 0
BBX 37 42 6 0
BITMAP
0000180300
0000780F00
0000F81F80
0000FC1F80
0000FC1F80
0001F83F00
0001F83F00
0003F83F00
0003F07E00
0003F07E00
0007E07E00
0007E0FC00
3FFFFFFFE0
7FFFFFFFF0
FFFFFFFFF8
FFFFFFFFF8
7FFFFFFFF0
3FFFFFFFE0
001F83F000
003F07E000
003F07E000
007F07E000
007E0FC000
007E0FC000
3FFFFFFFE0
7FFFFFFFF0
FFFFFFFFF8
FFFFFFFFF8
7FFFFFFFF0
3FFFFFFFE0
03F07F0000
03F07E0000
03F07E0000
07E0FC0000
07E0FC0000
0FC0FC0000
0FC1F80000
0FC1F80000
1F81F80000
0F81F00000
0F00F00000
0400800000
ENDCHAR
STARTCHAR 0024
ENCODING 36
SWIDTH 506 0
DWIDTH 45 0
BBX 34 78 5 -8
BITMAP
0000400000
0000E00000
0001F00000
0001F00000
0001F00000
0001F00000
0001F00000
0001F00000
01FFFFF000
03FFFFF800
07FFFFFC00
07FFFFFC00
03FFFFF800
31FFFFF000
7800000000
FC00000000
FC00000000
FC00000000
FC00000000
FC00000000
FC00000000
FC00000000
FC00000000
FC00000000
FC00000000
FC00000000
FC00000000
FC00000000
FC00000000
FC00000000
FC00000000
FC00000000
FC00000000
FC00000000
FC00000000
7800000000
31FFFFF000
03FFFFF800
07FFFFFC00
07FFFFFC00
03FFFFF900
01FFFFF380
00000007C0
00000007C0
00000007C0
00000007C0
00000007C0
00000007C0
00000007C0
00000007C0
00000007C0
00000007C0
00000007C0
00000007C0
00000007C0
00000007C0
00000007C0
00000007C0
00000007C0
00000007C0
00000007C0
00000007C0
00000007C0
00000007C0
01FFFFF380
03FFFFF900
07FFFFFC00
07FFFFFC00
03FFFFF800
01FFFFF000
0001F00000
0001F00000
0001F00000
0001F00000
0001F00000
0001F00000
0000E00000
0000400000
ENDCHAR
STARTCHAR 0025
ENCODING 37
SWIDTH 708 0
DWIDTH 63 0
BBX 52 62 5 0
BITMAP
00000000003000
0000000000F800
0000000000F800
0000000001F800
0000000003F800
0000000003F000
0000000007F000
0000000007E000
000000000FE000
000000001FC000
0FFF00001FC000
1FFF80003F8000
0FFF40003F0000
6000E0007F0000
E000E0007E0000
E000E000FE0000
E000E001FC0000
E000E001F80000
E000E003F80000
E000E003F00000
E000E007F00000
E000E00FE00000
E000E00FE00000
E000E01FC00000
E000E01F800000
E000E03F800000
6000C03F000000
0FFF007F000000
1FFF80FE000000
0FFF00FC000000
000001FC000000
000001F8000000
000003F807FF80
000007F00FFFC0
000007F007FFA0
00000FE0380070
00000FC0380070
00001FC0380070
00001F80380070
00003F80380070
00007F00380070
00007E00380070
0000FE00380070
0000FC00380070
0001FC00380070
0003F800380070
0003F800380070
0007F000380070
0007E000300070
000FE00007FFA0
000FC0000FFFC0
001FC00007FF80
003F8000000000
003F0000000000
007F0000000000
007E0000000000
00FE0000000000
01FC0000000000
01FC0000000000
00F80000000000
00F00000000000
00C00000000000
ENDCHAR
STARTCHAR 0026
ENCODING 38
SWIDTH 2362 0
DWIDTH 210 0
BBX 200 62 5 0
BITMAP
01FFFFF0000000000000000000000000000000000000000000
03FFFFF8000000000000000000000000000000000000000000
07FFFFFC000000000000000000000000000000000000000000
07FFFFFC000000000000000000000000000000000000000000
03FFFFF8000000000000000000000000000000000000000000
31FFFFF0000000000000000000000000000000000000000000
78000000000000000000000000000000000000000000000000
FC000000000000000000000000000000000000000000000000
FC000000000000000000000000000000000000000000000000
FC000000000000000000000000000000000000000000000000
FC000000000000000000000000000000000000000000000000
FC000000000000000000000000000000000000000000000000
FC000000000000000000000000000000000000000000000000
FC000000000000000000000000000000000000000000000000
FC000000000000000000000000000000000000000000000000
FC000000000000000000000000000000000000000000000000
FC000000000000000000000000000000000000000000000000
FC000000000000000000000000000000000000000000000000
FC000000000000000000000000000000000000000000000000
FC000000000000000000000000000000000000000000000000
FC000000000000000000000000000000000000000000000000
FC000000000000000000000000000000000000000000000000
FC000000000000000000000000000000000000000000000000
FC000000000000000000000000000000000000000000000000
FC000000000000000000000000000000000000000000000000
FC000000000000000000000000000000000000000000000000
FC000000000000000000000000000000000000000000000000
78000000000000000000000000000000000000000000000000
31FFFFF00000FFFFF800003FFFFE00001FFFFF0000007FFFFC
03FFFFF80001FFFFFC00007FFFFF00003FFFFF800000FFFFFE
07FFFFFC0003FFFFFE0000FFFFFF00007FFFFFC00001FFFFFF
07FFFFFC0003FFFFFE0000FFFFFF00007FFFFFC00001FFFFFF
03FFFFF80001FFFFFC00007FFFFF00003FFFFF800000FFFFFE
31FFFFF0000CFFFFF800063FFFFE00031FFFFF18000C7FFFFC
78000000001E000000000F00000000078000003C001E000000
FC000000003E000000001F8000000007C000007E003F000000
FC000000003E000000001F8000000007C000007E003F000000
FC000000003E000000001F8000000007C000007E003F000000
FC000000003E000000001F8000000007C000007E003F000000
FC000000003E000000001F8000000007C000007E003F000000
FC000000003E000000001F8000000007C000007E003F000000
FC000000003E000000001F8000000007C000007E003F000000
FC000000003E000000001F8000000007C000007E003F000000
FC000000003E000000001F8000000007C000007E003F000000
FC000000003E000000001F8000000007C000007E003F000000
FC000000003E000000001F8000000007C000007E003F000000
FC000000003E000000001F8000000007C000007E003F000000
FC000000003E000000001F8000000007C000007E003F000000
FC000000003E000000001F8000000007C000007E003F000000
FC000000003E000000001F8000000007C000007E003F000000
FC000000003E000000001F8000000007C000007E003F000000
FC000000003E000000001F8000000007C000007E003F000000
FC000000003E000000001F8000000007C000007E003F000000
FC000000003E000000001F8000000007C000007E003F000000
FC000000003E000000001F8000000007C000007E003F000000
78000000003E000000001F80000000078000003C003F000000
31FFFFF0003E000000001F80000000031FFFFF18003F000000
03FFFFF8003E000000001F80000000003FFFFF80003F000000
07FFFFFC003E000000001F80000000007FFFFFC0003F000000
07FFFFFC003E000000000F00000000007FFFFFC0001F000000
03FFFFF8001C000000000600000000003FFFFF80000E000000
01FFFFF00008000000000200000000001FFFFF000004000000
ENDCHAR
STARTCHAR 0028
ENCODING 40
SWIDTH 382 0
DWIDTH 34 0
BBX 23 62 5 0
BITMAP
01FFF8
03FFFC
07FFFE
07FFFE
03FFFC
31FFF8
780000
FC0000
FC0000
FC0000
FC0000
FC0000
FC0000
FC0000
FC0000
FC0000
FC0000
FC0000
FC0000
FC0000
FC0000
FC0000
FC0000
FC0000
FC0000
FC0000
FC0000
780000
300000
000000
000000
000000
000000
300000
780000
FC0000
FC0000
FC0000
FC0000
FC0000
FC0000
FC0000
FC0000
FC0000
FC0000
FC0000
FC0000
FC0000
FC0000
FC0000
FC0000
FC0000
FC0000
FC0000
FC0000
780000
31FFF8
03FFFC
07FFFE
07FFFE
03FFFC
01FFF8
ENDCHAR
STARTCHAR 0029
ENCODING 41
SWIDTH 382 0
DWIDTH 34 0
BBX 22 62 6 0
BITMAP
3FFF00
7FFF80
FFFFC0
FFFFC0
7FFF80
3FFF18
00003C
00007C
00007C
00007C
00007C
00007C
00007C
00007C
00007C
00007C
00007C
00007C
00007C
00007C
00007C
00007C
00007C
00007C
00007C
00007C
00007C
00003C
000018
000000
000000
000000
000000
000038
00007C
00007C
00007C
00007C
00007C
00007C
00007C
00007C
00007C
00007C
00007C
00007C
00007C
00007C
00007C
00007C
00007C
00007C
00007C
00007C
00007C
00003C
3FFF18
7FFF80
FFFFC0
FFFFC0
7FFF80
3FFF00
ENDCHAR
STARTCHAR 002A
ENCODING 42
SWIDTH 416 0
DWIDTH 37 0
BBX 26 29 5 45
BITMAP
000E0000
001F0000
001F0000
001F0000
001F0000
001F0000
381F0780
FE1F0FC0
7F9F3FC0
7FFFFFC0
7FFFFF80
1FFFFF00
0FFFFC00
03FFF800
00FFE000
03FFF800
0FFFFE00
3FFFFF00
7FFFFF80
7FDFFFC0
7F9F3FC0
FE1F0FC0
381F0380
001F0000
001F0000
001F0000
001F0000
001E0000
000C0000
ENDCHAR
STARTCHAR 002B
ENCODING 43
SWIDTH 663 0
DWIDTH 59 0
BBX 47 48 6 5
BITMAP
000001000000
000003800000
000007C00000
000007C00000
000007C00000
000007C00000
000007C00000
000007C00000
000007C00000
000007C00000
000007C00000
000007C00000
000007C00000
000007C00000
000007C00000
000007C00000
000007C00000
000007C00000
000007C00000
000007C00000
000007C00000
3FFFF39FFFF8
7FFFF93FFFFC
FFFFFC7FFFFE
FFFFFC7FFFFE
7FFFF83FFFFC
3FFFF11FFFF8
000003800000
000007C00000
000007C00000
000007C00000
000007C00000
000007C00000
000007C00000
000007C00000
000007C00000
000007C00000
000007C00000
000007C00000
000007C00000
000007C00000
000007C00000
000007C00000
000007C00000
000007C00000
000007C00000
000003800000
000001000000
ENDCHAR
STARTCHAR 002C
ENCODING 44
SWIDTH 236 0
DWIDTH 21 0
BBX 10 10 5 0
BITMAP
03C0
07C0
0FC0
1FC0
3FC0
7F80
FF00
FE00
FC00
F800
ENDCHAR
STARTCHAR 002D
ENCODING 45
SWIDTH 405 0
DWIDTH 36 0
BBX 24 6 6 28
BITMAP
3FFFFC
7FFFFE
FFFFFF
FFFFFF
7FFFFE
3FFFFC
ENDCHAR
STARTCHAR 002E
ENCODING 46
SWIDTH 180 0
DWIDTH 16 0
BBX 6 9 5 0
BITMAP
10
38
7C
FC
FC
FC
7C
38
10
ENDCHAR
STARTCHAR 002F
ENCODING 47
SWIDTH 540 0
DWIDTH 48 0
BBX 38 61 5 0
BITMAP
0000000078
00000000F8
00000000FC
00000001FC
00000001F8
00000003F8
00000003F0
00000007F0
0000000FE0
0000000FC0
0000001FC0
0000001F80
0000003F80
0000003F00
0000007F00
000000FE00
000000FC00
000001FC00
000001F800
000003F800
000007F000
000007E000
00000FE000
00000FC000
00001FC000
00001F8000
00001F8000
00001F0000
00000C0000
0000000000
0000000000
0000000000
0001E00000
0003E00000
0007E00000
0007E00000
000FE00000
000FC00000
001FC00000
001F800000
003F800000
007F000000
007E000000
00FE000000
00FC000000
01FC000000
03F8000000
03F0000000
07F0000000
07E0000000
0FE0000000
0FC0000000
1FC0000000
3F80000000
3F00000000
7F00000000
7E00000000
FE00000000
7C00000000
7C00000000
6000000000
ENDCHAR
STARTCHAR 0030
ENCODING 48
SWIDTH 506 0
DWIDTH 45 0
BBX 34 62 5 0
BITMAP
01FFFFF000
03FFFFF800
07FFFFFC00
07FFFFFC00
03FFFFF800
31FFFFF100
7800000380
FC000007C0
FC000007C0
FC000007C0
FC000007C0
FC000007C0
FC000007C0
FC000007C0
FC000007C0
FC000007C0
FC000007C0
FC000007C0
FC000007C0
FC000007C0
FC000007C0
FC000007C0
FC000007C0
FC000007C0
FC000007C0
FC000007C0
FC000007C0
78000007C0
3000000380
0000000100
0000000000
0000000000
0000000100
3000000380
78000007C0
FC000007C0
FC000007C0
FC000007C0
FC000007C0
FC000007C0
FC000007C0
FC000007C0
FC000007C0
FC000007C0
FC000007C0
FC000007C0
FC000007C0
FC000007C0
FC000007C0
FC000007C0
FC000007C0
FC000007C0
FC000007C0
FC000007C0
FC000007C0
7800000380
31FFFFF380
03FFFFF900
07FFFFFC00
07FFFFFC00
03FFFFF800
01FFFFF000
ENDCHAR
STARTCHAR 0031
ENCODING 49
SWIDTH 180 0
DWIDTH 16 0
BBX 6 62 5 0
BITMAP
10
38
7C
FC
FC
FC
FC
FC
FC
FC
FC
FC
FC
FC
FC
FC
FC
FC
FC
FC
FC
FC
FC
FC
FC
FC
FC
78
30
00
00
00
10
38
7C
FC
FC
FC
FC
FC
FC
FC
FC
FC
FC
FC
FC
FC
FC
FC
FC
FC
FC
FC
FC
FC
FC
FC
FC
7C
38
10
ENDCHAR
STARTCHAR 0032
ENCODING 50
SWIDTH 506 0
DWIDTH 45 0
BBX 34 62 5 0
BITMAP
01FFFFF000
03FFFFF800
07FFFFFC00
07FFFFFC00
03FFFFF800
01FFFFF100
0000000380
00000007C0
00000007C0
00000007C0
00000007C0
00000007C0
00000007C0
00000007C0
00000007C0
00000007C0
00000007C0
00000007C0
00000007C0
00000007C0
00000007C0
00000007C0
00000007C0
00000007C0
00000007C0
00000007C0
00000007C0
0000000380
01FFFFF100
03FFFFF800
07FFFFFC00
07FFFFFC00
03FFFFF800
31FFFFF000
7800000000
FC00000000
FC00000000
FC00000000
FC00000000
FC00000000
FC00000000
FC00000000
FC00000000
FC00000000
FC00000000
FC00000000
FC00000000
FC00000000
FC00000000
FC00000000
FC00000000
FC00000000
FC00000000
FC00000000
FC00000000
7800000000
31FFFFF000
03FFFFF800
07FFFFFC00
07FFFFFC00
03FFFFF800
01FFFFF000
ENDCHAR
STARTCHAR 0033
ENCODING 51
SWIDTH 450 0
DWIDTH 40 0
BBX 29 62 6 0
BITMAP
3FFFFC00
7FFFFE00
FFFFFF00
FFFFFF00
7FFFFE00
3FFFFC60
000000F0
000001F8
000001F8
000001F8
000001F8
000001F8
000001F8
000001F8
000001F8
000001F8
000001F8
000001F8
000001F8
000001F8
000001F8
000001F8
000001F8
000001F8
000001F8
000001F8
000001F8
000000F0
3FFFFC60
7FFFFE00
FFFFFF00
FFFFFF00
7FFFFE00
3FFFFC60
000000F0
000001F8
000001F8
000001F8
000001F8
000001F8
000001F8
000001F8
000001F8
000001F8
000001F8
000001F8
000001F8
000001F8
000001F8
000001F8
000001F8
000001F8
000001F8
000001F8
000001F8
000000F0
3FFFFC60
7FFFFE00
FFFFFF00
FFFFFF00
7FFFFE00
3FFFFC00
ENDCHAR
STARTCHAR 0034
ENCODING 52
SWIDTH 506 0
DWIDTH 45 0
BBX 34 62 5 0
BITMAP
1000000100
3800000380
7C000007C0
FC000007C0
FC000007C0
FC000007C0
FC000007C0
FC000007C0
FC000007C0
FC000007C0
FC000007C0
FC000007C0
FC000007C0
FC000007C0
FC000007C0
FC000007C0
FC000007C0
FC000007C0
FC000007C0
FC000007C0
FC000007C0
FC000007C0
FC000007C0
FC000007C0
FC000007C0
FC000007C0
FC000007C0
7800000380
31FFFFF100
03FFFFF800
07FFFFFC00
07FFFFFC00
03FFFFF800
01FFFFF100
0000000380
00000007C0
00000007C0
00000007C0
00000007C0
00000007C0
00000007C0
00000007C0
00000007C0
00000007C0
00000007C0
00000007C0
00000007C0
00000007C0
00000007C0
00000007C0
00000007C0
00000007C0
00000007C0
00000007C0
00000007C0
00000007C0
00000007C0
00000007C0
00000007C0
00000007C0
0000000380
0000000100
ENDCHAR
STARTCHAR 0035
ENCODING 53
SWIDTH 506 0
DWIDTH 45 0
BBX 34 62 5 0
BITMAP
01FFFFF000
03FFFFF800
07FFFFFC00
07FFFFFC00
03FFFFF800
31FFFFF000
7800000000
FC00000000
FC00000000
FC00000000
FC00000000
FC00000000
FC00000000
FC00000000
FC00000000
FC00000000
FC00000000
FC00000000
FC00000000
FC00000000
FC00000000
FC00000000
FC00000000
FC00000000
FC00000000
FC00000000
FC00000000
7800000000
31FFFFF000
03FFFFF800
07FFFFFC00
07FFFFFC00
03FFFFF800
01FFFFF100
0000000380
00000007C0
00000007C0
00000007C0
00000007C0
00000007C0
00000007C0
00000007C0
00000007C0
00000007C0
00000007C0
00000007C0
00000007C0
00000007C0
00000007C0
00000007C0
00000007C0
00000007C0
00000007C0
00000007C0
00000007C0
00000007C0
01FFFFF380
03FFFFF900
07FFFFFC00
07FFFFFC00
03FFFFF800
01FFFFF000
ENDCHAR
STARTCHAR 0036
ENCODING 54
SWIDTH 506 0
DWIDTH 45 0
BBX 34 62 5 0
BITMAP
01FFFFF000
03FFFFF800
07FFFFFC00
07FFFFFC00
03FFFFF800
31FFFFF000
7800000000
FC00000000
FC00000000
FC00000000
FC00000000
FC00000000
FC00000000
FC00000000
FC00000000
FC00000000
FC00000000
FC00000000
FC00000000
FC00000000
FC00000000
FC00000000
FC00000000
FC00000000
FC00000000
FC00000000
FC00000000
7800000000
31FFFFF000
03FFFFF800
07FFFFFC00
07FFFFFC00
03FFFFF800
31FFFFF100
7800000380
FC000007C0
FC000007C0
FC000007C0
FC000007C0
FC000007C0
FC000007C0
FC000007C0
FC000007C0
FC000007C0
FC000007C0
FC000007C0
FC000007C0
FC000007C0
FC000007C0
FC000007C0
FC000007C0
FC000007C0
FC000007C0
FC000007C0
FC000007C0
78000007C0
31FFFFF380
03FFFFF900
07FFFFFC00
07FFFFFC00
03FFFFF800
01FFFFF000
ENDCHAR
STARTCHAR 0037
ENCODING 55
SWIDTH 450 0
DWIDTH 40 0
BBX 29 62 6 0
BITMAP
3FFFFC00
7FFFFE00
FFFFFF00
FFFFFF00
7FFFFE00
3FFFFC60
000000F0
000001F8
000001F8
000001F8
000001F8
000001F8
000001F8
000001F8
000001F8
000001F8
000001F8
000001F8
000001F8
000001F8
000001F8
000001F8
000001F8
000001F8
000001F8
000001F8
000001F8
000000F8
00000070
00000020
00000000
00000000
00000000
00000060
000000F0
000001F8
000001F8
000001F8
000001F8
000001F8
000001F8
000001F8
000001F8
000001F8
000001F8
000001F8
000001F8
000001F8
000001F8
000001F8
000001F8
000001F8
000001F8
000001F8
000001F8
000001F8
000001F8
000001F8
000001F8
000000F8
00000070
00000020
ENDCHAR
STARTCHAR 0038
ENCODING 56
SWIDTH 506 0
DWIDTH 45 0
BBX 34 62 5 0
BITMAP
01FFFFF000
03FFFFF800
07FFFFFC00
07FFFFFC00
03FFFFF800
31FFFFF100
7800000380
FC000007C0
FC000007C0
FC000007C0
FC000007C0
FC000007C0
FC000007C0
FC000007C0
FC000007C0
FC000007C0
FC000007C0
FC000007C0
FC000007C0
FC000007C0
FC000007C0
FC000007C0
FC000007C0
FC000007C0
FC000007C0
FC000007C0
FC000007C0
7800000380
31FFFFF100
03FFFFF800
07FFFFFC00
07FFFFFC00
03FFFFF800
31FFFFF100
7800000380
FC000007C0
FC000007C0
FC000007C0
FC000007C0
FC000007C0
FC000007C0
FC000007C0
FC000007C0
FC000007C0
FC000007C0
FC000007C0
FC000007C0
FC000007C0
FC000007C0
FC000007C0
FC000007C0
FC000007C0
FC000007C0
FC000007C0
FC000007C0
78000007C0
31FFFFF380
03FFFFF900
07FFFFFC00
07FFFFFC00
03FFFFF800
01FFFFF000
ENDCHAR
STARTCHAR 0039
ENCODING 57
SWIDTH 506 0
DWIDTH 45 0
BBX 34 62 5 0
BITMAP
01FFFFF000
03FFFFF800
07FFFFFC00
07FFFFFC00
03FFFFF800
31FFFFF100
7800000380
FC000007C0
FC000007C0
FC000007C0
FC000007C0
FC000007C0
FC000007C0
FC000007C0
FC000007C0
FC000007C0
FC000007C0
FC000007C0
FC000007C0
FC000007C0
FC000007C0
FC000007C0
FC000007C0
FC000007C0
FC000007C0
FC000007C0
FC000007C0
7800000380
31FFFFF100
03FFFFF800
07FFFFFC00
07FFFFFC00
03FFFFF800
01FFFFF100
0000000380
00000007C0
00000007C0
00000007C0
00000007C0
00000007C0
00000007C0
00000007C0
00000007C0
00000007C0
00000007C0
00000007C0
00000007C0
00000007C0
00000007C0
00000007C0
00000007C0
00000007C0
00000007C0
00000007C0
00000007C0
00000007C0
01FFFFF380
03FFFFF900
07FFFFFC00
07FFFFFC00
03FFFFF800
01FFFFF000
ENDCHAR
STARTCHAR 003A
ENCODING 58
SWIDTH 180 0
DWIDTH 16 0
BBX 6 26 5 0
BITMAP
10
38
7C
FC
FC
FC
78
30
00
00
00
00
00
00
00
00
00
00
30
78
FC
FC
FC
7C
38
10
ENDCHAR
STARTCHAR 003C
ENCODING 60
SWIDTH 292 0
DWIDTH 26 0
BBX 15 62 5 0
BITMAP
0004
003C
003E
007E
007E
007E
00FC
00FC
01FC
01F8
01F8
03F0
03F0
07F0
07E0
07E0
0FC0
0FC0
1FC0
1F80
1F80
3F00
3F00
7F00
7E00
7E00
FC00
7C00
7800
2000
0000
0000
2000
7800
7C00
FC00
7E00
7E00
7F00
3F00
3F00
1F80
1F80
1FC0
0FC0
0FC0
07E0
07E0
07E0
03F0
03F0
01F8
01F8
01F8
00FC
00FC
007E
007E
007E
003E
003C
0004
ENDCHAR
STARTCHAR 003D
ENCODING 61
SWIDTH 551 0
DWIDTH 49 0
BBX 37 21 6 14
BITMAP
3FFFFFFFE0
7FFFFFFFF0
FFFFFFFFF8
FFFFFFFFF8
7FFFFFFFF0
3FFFFFFFE0
0000000000
0000000000
0000000000
0000000000
0000000000
0000000000
0000000000
0000000000
0000000000
3FFFFFFFE0
7FFFFFFFF0
FFFFFFFFF8
FFFFFFFFF8
7FFFFFFFF0
3FFFFFFFE0
ENDCHAR
STARTCHAR 003E
ENCODING 62
SWIDTH 292 0
DWIDTH 26 0
BBX 15 62 5 0
BITMAP
2000
7800
7C00
FC00
7E00
7E00
7F00
3F00
3F00
1F80
1F80
1FC0
0FC0
0FC0
07E0
07E0
07F0
03F0
03F0
01F8
01F8
01FC
00FC
00FC
007E
007E
007E
003E
003C
0004
0000
0000
0004
003C
003E
007E
007E
007E
00FC
00FC
01FC
01F8
01F8
03F0
03F0
07F0
07E0
07E0
0FC0
0FC0
1FC0
1F80
1F80
3F00
3F00
7F00
7E00
7E00
FC00
7C00
7800
2000
ENDCHAR
STARTCHAR 003F
ENCODING 63
SWIDTH 506 0
DWIDTH 45 0
BBX 34 62 5 0
BITMAP
01FFFFF000
03FFFFF800
07FFFFFC00
07FFFFFC00
03FFFFF900
01FFFFF380
00000007C0
00000007C0
00000007C0
00000007C0
00000007C0
00000007C0
00000007C0
00000007C0
00000007C0
00000007C0
00000007C0
00000007C0
00000007C0
00000007C0
00000007C0
00000007C0
00000007C0
00000007C0
00000007C0
00000007C0
00000007C0
00000007C0
01FFFFF380
03FFFFF900
07FFFFFC00
07FFFFFC00
03FFFFF800
31FFFFF000
7800000000
FC00000000
FC00000000
FC00000000
FC00000000
FC00000000
FC00000000
FC00000000
FC00000000
FC00000000
FC00000000
FC00000000
FC00000000
FC00000000
FC00000000
7800000000
3000000000
0000000000
0000000000
0000000000
3000000000
7800000000
FC00000000
FC00000000
FC00000000
7C00000000
3800000000
1000000000
ENDCHAR
STARTCHAR 0040
ENCODING 64
SWIDTH 506 0
DWIDTH 45 0
BBX 34 62 5 0
BITMAP
01FFFFF000
03FFFFF800
07FFFFFC00
07FFFFFC00
03FFFFF900
31FFFFF380
78000007C0
FC000007C0
FC000007C0
FC000007C0
FC000007C0
FC000007C0
FC000007C0
FC000007C0
FC007FF7C0
FC00FFF7C0
FC01FFF7C0
FC01FFF7C0
FC00FFF7C0
FC047FF7C0
FC0E0007C0
FC1F0007C0
FC1F0007C0
FC1F0007C0
FC1F0007C0
FC1F0007C0
FC1F0007C0
781F0007C0
301F000380
001F000100
001F000000
001F000000
001F000000
301F000100
781F000380
FC1F0007C0
FC1F0007C0
FC1F0007C0
FC1F0007C0
FC1F0007C0
FC1F0007C0
FC1F0007C0
FC1E000380
FC0C7FF100
FC00FFF800
FC01FFFC00
FC01FFFC00
FC00FFF800
FC007FF000
FC00000000
FC00000000
FC00000000
FC00000000
FC00000000
FC00000000
7800000000
31FFFFF000
03FFFFF800
07FFFFFC00
07FFFFFC00
03FFFFF800
01FFFFF000
ENDCHAR
STARTCHAR 0041
ENCODING 65
SWIDTH 506 0
DWIDTH 45 0
BBX 34 62 5 0
BITMAP
01FFFFF000
03FFFFF800
07FFFFFC00
07FFFFFC00
03FFFFF900
31FFFFF380
78000007C0
FC000007C0
FC000007C0
FC000007C0
FC000007C0
FC000007C0
FC000007C0
FC000007C0
FC000007C0
FC000007C0
FC000007C0
FC000007C0
FC000007C0
FC000007C0
FC000007C0
FC000007C0
FC000007C0
FC000007C0
FC000007C0
FC000007C0
FC000007C0
78000007C0
31FFFFF380
03FFFFF900
07FFFFFC00
07FFFFFC00
03FFFFF800
31FFFFF100
7800000380
FC000007C0
FC000007C0
FC000007C0
FC000007C0
FC000007C0
FC000007C0
FC000007C0
FC000007C0
FC000007C0
FC000007C0
FC000007C0
FC000007C0
FC000007C0
FC000007C0
FC000007C0
FC000007C0
FC000007C0
FC000007C0
FC000007C0
FC000007C0
FC000007C0
FC000007C0
FC000007C0
FC000007C0
7C000007C0
3800000380
1000000100
ENDCHAR
STARTCHAR 0042
ENCODING 66
SWIDTH 506 0
DWIDTH 45 0
BBX 34 62 5 0
BITMAP
3FFFFFF000
1FFFFFF800
8FFFFFFC00
C7FFFFFC00
E3FFFFF900
F1FFFFF380
F8000007C0
FC000007C0
FC000007C0
FC000007C0
FC000007C0
FC000007C0
FC000007C0
FC000007C0
FC000007C0
FC000007C0
FC000007C0
FC000007C0
FC000007C0
FC000007C0
FC000007C0
FC000007C0
FC000007C0
FC000007C0
FC000007C0
FC000007C0
FC000007C0
78000007C0
31FFFFF380
03FFFFF900
07FFFFFC00
07FFFFFC00
03FFFFF900
31FFFFF380
78000007C0
FC000007C0
FC000007C0
FC000007C0
FC000007C0
FC000007C0
FC000007C0
FC000007C0
FC000007C0
FC000007C0
FC000007C0
FC000007C0
FC000007C0
FC000007C0
FC000007C0
FC000007C0
FC000007C0
FC000007C0
FC000007C0
FC000007C0
FC000007C0
F800000380
F1FFFFF100
E3FFFFF800
C7FFFFFC00
8FFFFFFC00
1FFFFFF800
3FFFFFF000
ENDCHAR
STARTCHAR 0043
ENCODING 67
SWIDTH 450 0
DWIDTH 40 0
BBX 30 62 5 0
BITMAP
01FFFFF0
03FFFFF8
07FFFFFC
07FFFFFC
03FFFFF8
31FFFFF0
78000000
FC000000
FC000000
FC000000
FC000000
FC000000
FC000000
FC000000
FC000000
FC000000
FC000000
FC000000
FC000000
FC000000
FC000000
FC000000
FC000000
FC000000
FC000000
FC000000
FC000000
78000000
30000000
00000000
00000000
00000000
00000000
30000000
78000000
FC000000
FC000000
FC000000
FC000000
FC000000
FC000000
FC000000
FC000000
FC000000
FC000000
FC000000
FC000000
FC000000
FC000000
FC000000
FC000000
FC000000
FC000000
FC000000
FC000000
78000000
31FFFFF0
03FFFFF8
07FFFFFC
07FFFFFC
03FFFFF8
01FFFFF0
ENDCHAR
STARTCHAR 0044
ENCODING 68
SWIDTH 506 0
DWIDTH 45 0
BBX 34 62 5 0
BITMAP
3FFFFFF000
1FFFFFF800
8FFFFFFC00
C7FFFFFC00
E3FFFFF900
F1FFFFF380
F800000380
FC000007C0
FC000007C0
FC000007C0
FC000007C0
FC000007C0
FC000007C0
FC000007C0
FC000007C0
FC000007C0
FC000007C0
FC000007C0
FC000007C0
FC000007C0
FC000007C0
FC000007C0
FC000007C0
FC000007C0
FC000007C0
FC000007C0
FC000007C0
78000007C0
3000000380
0000000100
0000000000
0000000000
0000000100
3000000380
78000007C0
FC000007C0
FC000007C0
FC000007C0
FC000007C0
FC000007C0
FC000007C0
FC000007C0
FC000007C0
FC000007C0
FC000007C0
FC000007C0
FC000007C0
FC000007C0
FC000007C0
FC000007C0
FC000007C0
FC000007C0
FC000007C0
FC000007C0
FC000007C0
F800000380
F1FFFFF100
E3FFFFF800
C7FFFFFC00
8FFFFFFC00
1FFFFFF800
3FFFFFF000
ENDCHAR
STARTCHAR 0045
ENCODING 69
SWIDTH 450 0
DWIDTH 40 0
BBX 30 62 5 0
BITMAP
01FFFFF0
03FFFFF8
07FFFFFC
07FFFFFC
03FFFFF8
31FFFFF0
78000000
FC000000
FC000000
FC000000
FC000000
FC000000
FC000000
FC000000
FC000000
FC000000
FC000000
FC000000
FC000000
FC000000
FC000000
FC000000
FC000000
FC000000
FC000000
FC000000
FC000000
78000000
31FFFFF0
03FFFFF8
07FFFFFC
07FFFFFC
03FFFFF8
31FFFFF0
78000000
FC000000
FC000000
FC000000
FC000000
FC000000
FC000000
FC000000
FC000000
FC000000
FC000000
FC000000
FC000000
FC000000
FC000000
FC000000
FC000000
FC000000
FC000000
FC000000
FC000000
78000000
31FFFFF0
03FFFFF8
07FFFFFC
07FFFFFC
03FFFFF8
01FFFFF0
ENDCHAR
STARTCHAR 0046
ENCODING 70
SWIDTH 450 0
DWIDTH 40 0
BBX 30 62 5 0
BITMAP
01FFFFF0
03FFFFF8
07FFFFFC
07FFFFFC
03FFFFF8
31FFFFF0
78000000
FC000000
FC000000
FC000000
FC000000
FC000000
FC000000
FC000000
FC000000
FC000000
FC000000
FC000000
FC000000
FC000000
FC000000
FC000000
FC000000
FC000000
FC000000
FC000000
FC000000
78000000
31FFFFF0
03FFFFF8
07FFFFFC
07FFFFFC
03FFFFF8
31FFFFF0
78000000
FC000000
FC000000
FC000000
FC000000
FC000000
FC000000
FC000000
FC000000
FC000000
FC000000
FC000000
FC000000
FC000000
FC000000
FC000000
FC000000
FC000000
FC000000
FC000000
FC000000
FC000000
FC000000
FC000000
FC000000
7C000000
38000000
10000000
ENDCHAR
STARTCHAR 0047
ENCODING 71
SWIDTH 506 0
DWIDTH 45 0
BBX 34 62 5 0
BITMAP
01FFFFF000
03FFFFF800
07FFFFFC00
07FFFFFC00
03FFFFF800
31FFFFF000
7800000000
FC00000000
FC00000000
FC00000000
FC00000000
FC00000000
FC00000000
FC00000000
FC00000000
FC00000000
FC00000000
FC00000000
FC00000000
FC00000000
FC00000000
FC00000000
FC00000000
FC00000000
FC00000000
FC00000000
FC00000000
7800000000
3003FFF000
0007FFF800
000FFFFC00
000FFFFC00
0007FFF800
3003FFF100
7800000380
FC000007C0
FC000007C0
FC000007C0
FC000007C0
FC000007C0
FC000007C0
FC000007C0
FC000007C0
FC000007C0
FC000007C0
FC000007C0
FC000007C0
FC000007C0
FC000007C0
FC000007C0
FC000007C0
FC000007C0
FC000007C0
FC000007C0
FC000007C0
7800000380
31FFFFF100
03FFFFF800
07FFFFFC00
07FFFFFC00
03FFFFF800
01FFFFF000
ENDCHAR
STARTCHAR 0048
ENCODING 72
SWIDTH 506 0
DWIDTH 45 0
BBX 34 62 5 0
BITMAP
1000000100
3800000380
7C000007C0
FC000007C0
FC000007C0
FC000007C0
FC000007C0
FC000007C0
FC000007C0
FC000007C0
FC000007C0
FC000007C0
FC000007C0
FC000007C0
FC000007C0
FC000007C0
FC000007C0
FC000007C0
FC000007C0
FC000007C0
FC000007C0
FC000007C0
FC000007C0
FC000007C0
FC000007C0
FC000007C0
FC000007C0
7800000380
31FFFFF380
03FFFFF900
07FFFFFC00
07FFFFFC00
03FFFFF800
31FFFFF100
7800000380
FC000007C0
FC000007C0
FC000007C0
FC000007C0
FC000007C0
FC000007C0
FC000007C0
FC000007C0
FC000007C0
FC000007C0
FC000007C0
FC000007C0
FC000007C0
FC000007C0
FC000007C0
FC000007C0
FC000007C0
FC000007C0
FC000007C0
FC000007C0
FC000007C0
FC000007C0
FC000007C0
FC000007C0
7C000007C0
3800000380
1000000100
ENDCHAR
STARTCHAR 0049
ENCODING 73
SWIDTH 180 0
DWIDTH 16 0
BBX 6 62 5 0
BITMAP
10
38
7C
FC
FC
FC
FC
FC
FC
FC
FC
FC
FC
FC
FC
FC
FC
FC
FC
FC
FC
FC
FC
FC
FC
FC
FC
78
30
00
00
00
00
30
78
FC
FC
FC
FC
FC
FC
FC
FC
FC
FC
FC
FC
FC
FC
FC
FC
FC
FC
FC
FC
FC
FC
FC
FC
7C
38
10
ENDCHAR
STARTCHAR 004A
ENCODING 74
SWIDTH 506 0
DWIDTH 45 0
BBX 34 62 5 0
BITMAP
0000000100
0000000380
00000007C0
00000007C0
00000007C0
00000007C0
00000007C0
00000007C0
00000007C0
00000007C0
00000007C0
00000007C0
00000007C0
00000007C0
00000007C0
00000007C0
00000007C0
00000007C0
00000007C0
00000007C0
00000007C0
00000007C0
00000007C0
00000007C0
00000007C0
00000007C0
00000007C0
0000000380
0000000100
0000000000
0000000000
0000000000
0000000100
3000000380
7C000007C0
FC000007C0
FC000007C0
FC000007C0
FC000007C0
FC000007C0
FC000007C0
FC000007C0
FC000007C0
FC000007C0
FC000007C0
FC000007C0
FC000007C0
FC000007C0
FC000007C0
FC000007C0
FC000007C0
FC000007C0
FC000007C0
FC000007C0
FC000007C0
7800000380
31FFFFF100
03FFFFF800
07FFFFFC00
07FFFFFC00
03FFFFF800
01FFFFF000
ENDCHAR
STARTCHAR 004B
ENCODING 75
SWIDTH 506 0
DWIDTH 45 0
BBX 34 62 5 0
BITMAP
10000003C0
38000007C0
7C00000FC0
FC00001FC0
FC00003FC0
FC00007F80
FC0000FF00
FC0001FE00
FC0003FC00
FC0007F800
FC000FF000
FC001FE000
FC003FC000
FC007F8000
FC00FF0000
FC01FE0000
FC03FC0000
FC07F80000
FC0FF00000
FC1FE00000
FC3FC00000
FC7F800000
FCFF000000
FCFE000000
FCFC000000
FCF8000000
FC00000000
7800000000
31FFFFF000
03FFFFF800
07FFFFFC00
07FFFFFC00
03FFFFF900
31FFFFF380
7800000380
FC000007C0
FC000007C0
FC000007C0
FC000007C0
FC000007C0
FC000007C0
FC000007C0
FC000007C0
FC000007C0
FC000007C0
FC000007C0
FC000007C0
FC000007C0
FC000007C0
FC000007C0
FC000007C0
FC000007C0
FC000007C0
FC000007C0
FC000007C0
FC000007C0
FC000007C0
FC000007C0
FC000007C0
7C000007C0
3800000380
1000000100
ENDCHAR
STARTCHAR 004C
ENCODING 76
SWIDTH 450 0
DWIDTH 40 0
BBX 30 62 5 0
BITMAP
10000000
38000000
7C000000
FC000000
FC000000
FC000000
FC000000
FC000000
FC000000
FC000000
FC000000
FC000000
FC000000
FC000000
FC000000
FC000000
FC000000
FC000000
FC000000
FC000000
FC000000
FC000000
FC000000
FC000000
FC000000
FC000000
FC000000
78000000
30000000
00000000
00000000
00000000
00000000
30000000
7C000000
FC000000
FC000000
FC000000
FC000000
FC000000
FC000000
FC000000
FC000000
FC000000
FC000000
FC000000
FC000000
FC000000
FC000000
FC000000
FC000000
FC000000
FC000000
FC000000
FC000000
78000000
31FFFFF0
03FFFFF8
07FFFFFC
07FFFFFC
03FFFFF8
01FFFFF0
ENDCHAR
STARTCHAR 004D
ENCODING 77
SWIDTH 686 0
DWIDTH 61 0
BBX 51 62 5 0
BITMAP
01FFFC07FFF000
03FFFE0FFFF800
07FFFF1FFFFC00
07FFFF1FFFFC00
03FFFE0FFFF800
31FFFC47FFF180
780000E00003C0
FC0001F00007E0
FC0001F00007E0
FC0001F00007E0
FC0001F00007E0
FC0001F00007E0
FC0001F00007E0
FC0001F00007E0
FC0001F00007E0
FC0001F00007E0
FC0001F00007E0
FC0001F00007E0
FC0001F00007E0
FC0001F00007E0
FC0001F00007E0
FC0001F00007E0
FC0001F00007E0
FC0001F00007E0
FC0001F00007E0
FC0001F00007E0
FC0001F00007E0
7C0001F00007C0
380000E0000380
10000040000100
00000000000000
00000000000000
00000000000000
30000000000180
780000000003C0
FC0000000007E0
FC0000000007E0
FC0000000007E0
FC0000000007E0
FC0000000007E0
FC0000000007E0
FC0000000007E0
FC0000000007E0
FC0000000007E0
FC0000000007E0
FC0000000007E0
FC0000000007E0
FC0000000007E0
FC0000000007E0
FC0000000007E0
FC0000000007E0
FC0000000007E0
FC0000000007E0
FC0000000007E0
FC0000000007E0
FC0000000007E0
FC0000000007E0
FC0000000007E0
FC0000000007E0
7C0000000007C0
38000000000380
10000000000100
ENDCHAR
STARTCHAR 004E
ENCODING 78
SWIDTH 506 0
DWIDTH 45 0
BBX 34 62 5 0
BITMAP
01FFFFF000
03FFFFF800
07FFFFFC00
07FFFFFC00
03FFFFF900
31FFFFF380
7800000380
FC000007C0
FC000007C0
FC000007C0
FC000007C0
FC000007C0
FC000007C0
FC000007C0
FC000007C0
FC000007C0
FC000007C0
FC000007C0
FC000007C0
FC000007C0
FC000007C0
FC000007C0
FC000007C0
FC000007C0
FC000007C0
FC000007C0
FC000007C0
7C000007C0
3800000380
1000000100
0000000000
0000000000
0000000000
3000000100
7800000380
FC000007C0
FC000007C0
FC000007C0
FC000007C0
FC000007C0
FC000007C0
FC000007C0
FC000007C0
FC000007C0
FC000007C0
FC000007C0
FC000007C0
FC000007C0
FC000007C0
FC000007C0
FC000007C0
FC000007C0
FC000007C0
FC000007C0
FC000007C0
FC000007C0
FC000007C0
FC000007C0
FC000007C0
7C000007C0
3800000380
1000000100
ENDCHAR
STARTCHAR 004F
ENCODING 79
SWIDTH 506 0
DWIDTH 45 0
BBX 34 62 5 0
BITMAP
01FFFFF000
03FFFFF800
07FFFFFC00
07FFFFFC00
03FFFFF900
31FFFFF380
7800000380
FC000007C0
FC000007C0
FC000007C0
FC000007C0
FC000007C0
FC000007C0
FC000007C0
FC000007C0
FC000007C0
FC000007C0
FC000007C0
FC000007C0
FC000007C0
FC000007C0
FC000007C0
FC000007C0
FC000007C0
FC000007C0
FC000007C0
FC000007C0
78000007C0
3000000380
0000000100
0000000000
0000000000
0000000100
3000000380
78000007C0
FC000007C0
FC000007C0
FC000007C0
FC000007C0
FC000007C0
FC000007C0
FC000007C0
FC000007C0
FC000007C0
FC000007C0
FC000007C0
FC000007C0
FC000007C0
FC000007C0
FC000007C0
FC000007C0
FC000007C0
FC000007C0
FC000007C0
FC000007C0
7800000380
31FFFFF100
03FFFFF800
07FFFFFC00
07FFFFFC00
03FFFFF800
01FFFFF000
ENDCHAR
STARTCHAR 0050
ENCODING 80
SWIDTH 506 0
DWIDTH 45 0
BBX 34 62 5 0
BITMAP
01FFFFF000
03FFFFF800
07FFFFFC00
07FFFFFC00
03FFFFF900
31FFFFF380
78000007C0
FC000007C0
FC000007C0
FC000007C0
FC000007C0
FC000007C0
FC000007C0
FC000007C0
FC000007C0
FC000007C0
FC000007C0
FC000007C0
FC000007C0
FC000007C0
FC000007C0
FC000007C0
FC000007C0
FC000007C0
FC000007C0
FC000007C0
FC000007C0
7800000380
31FFFFF380
03FFFFF900
07FFFFFC00
07FFFFFC00
03FFFFF800
31FFFFF000
7800000000
FC00000000
FC00000000
FC00000000
FC00000000
FC00000000
FC00000000
FC00000000
FC00000000
FC00000000
FC00000000
FC00000000
FC00000000
FC00000000
FC00000000
FC00000000
FC00000000
FC00000000
FC00000000
FC00000000
FC00000000
FC00000000
FC00000000
FC00000000
FC00000000
7C00000000
3800000000
1000000000
ENDCHAR
STARTCHAR 0051
ENCODING 81
SWIDTH 506 0
DWIDTH 45 0
BBX 34 62 5 0
BITMAP
01FFFFF000
03FFFFF800
07FFFFFC00
07FFFFFC00
03FFFFF800
31FFFFF100
7800000380
FC000007C0
FC000007C0
FC000007C0
FC000007C0
FC000007C0
FC000007C0
FC000007C0
FC000007C0
FC000007C0
FC000007C0
FC000007C0
FC000007C0
FC000007C0
FC000007C0
FC000007C0
FC000007C0
FC000007C0
FC000007C0
FC000007C0
FC000007C0
78000007C0
3000000380
0000000100
0000000000
0000000000
0000000100
3000000380
78000007C0
FC000007C0
FC000007C0
FC000007C0
FC000007C0
FC000007C0
FC000007C0
FC000007C0
FC000007C0
FC000007C0
FC000007C0
FC000007C0
FC000007C0
FC000007C0
FC000007C0
FC00000380
FC00000100
FC00007C00
FC00007E00
FC00007F00
FC00007F80
7800003FC0
31FFFF9FC0
03FFFFCFC0
07FFFFE7C0
07FFFFE3C0
03FFFFC000
01FFFF8000
ENDCHAR
STARTCHAR 0052
ENCODING 82
SWIDTH 506 0
DWIDTH 45 0
BBX 34 62 5 0
BITMAP
01FFFFF000
03FFFFF800
07FFFFFC00
07FFFFFC00
03FFFFF900
31FFFFF380
78000007C0
FC000007C0
FC000007C0
FC000007C0
FC000007C0
FC000007C0
FC000007C0
FC000007C0
FC000007C0
FC000007C0
FC000007C0
FC000007C0
FC000007C0
FC000007C0
FC000007C0
FC000007C0
FC000007C0
FC000007C0
FC000007C0
FC000007C0
FC000007C0
7800000380
31FFFFF380
03FFFFF900
07FFFFFC00
07FFFFFC00
03FFFFF800
31FFFFF000
7800000000
FC00000000
FCF8000000
FCFC000000
FCFE000000
FCFF000000
FC7F800000
FC3FC00000
FC1FE00000
FC0FF00000
FC07F80000
FC03FC0000
FC01FE0000
FC00FF0000
FC007F8000
FC003FC000
FC001FE000
FC000FF000
FC0007F800
FC0003FC00
FC0001FE00
FC0000FF00
FC00007F80
FC00003FC0
FC00001FC0
7C00000FC0
38000007C0
10000003C0
ENDCHAR
STARTCHAR 0053
ENCODING 83
SWIDTH 506 0
DWIDTH 45 0
BBX 34 62 5 0
BITMAP
01FFFFF000
03FFFFF800
07FFFFFC00
07FFFFFC00
03FFFFF800
31FFFFF000
7800000000
FC00000000
FC00000000
FC00000000
FC00000000
FC00000000
FC00000000
FC00000000
FC00000000
FC00000000
FC00000000
FC00000000
FC00000000
FC00000000
FC00000000
FC00000000
FC00000000
FC00000000
FC00000000
FC00000000
FC00000000
7800000000
31FFFFF000
03FFFFF800
07FFFFFC00
07FFFFFC00
03FFFFF800
01FFFFF100
0000000380
00000007C0
00000007C0
00000007C0
00000007C0
00000007C0
00000007C0
00000007C0
00000007C0
00000007C0
00000007C0
00000007C0
00000007C0
00000007C0
00000007C0
00000007C0
00000007C0
00000007C0
00000007C0
00000007C0
00000007C0
0000000380
01FFFFF100
03FFFFF800
07FFFFFC00
07FFFFFC00
03FFFFF800
01FFFFF000
ENDCHAR
STARTCHAR 0054
ENCODING 84
SWIDTH 585 0
DWIDTH 52 0
BBX 40 62 6 0
BITMAP
3FFF00FFFC
7FFF81FFFE
FFFFC3FFFF
FFFFC3FFFF
7FFF81FFFE
3FFF18FFFC
00003C0000
00007E0000
00007E0000
00007E0000
00007E0000
00007E0000
00007E0000
00007E0000
00007E0000
00007E0000
00007E0000
00007E0000
00007E0000
00007E0000
00007E0000
00007E0000
00007E0000
00007E0000
00007E0000
00007E0000
00007E0000
00003C0000
0000180000
0000000000
0000000000
0000000000
0000000000
0000180000
00003C0000
00007E0000
00007E0000
00007E0000
00007E0000
00007E0000
00007E0000
00007E0000
00007E0000
00007E0000
00007E0000
00007E0000
00007E0000
00007E0000
00007E0000
00007E0000
00007E0000
00007E0000
00007E0000
00007E0000
00007E0000
00007E0000
00007E0000
00007E0000
00007E0000
00007E0000
00003C0000
0000080000
ENDCHAR
STARTCHAR 0055
ENCODING 85
SWIDTH 506 0
DWIDTH 45 0
BBX 34 62 5 0
BITMAP
1000000100
3800000380
7C000007C0
FC000007C0
FC000007C0
FC000007C0
FC000007C0
FC000007C0
FC000007C0
FC000007C0
FC000007C0
FC000007C0
FC000007C0
FC000007C0
FC000007C0
FC000007C0
FC000007C0
FC000007C0
FC000007C0
FC000007C0
FC000007C0
FC000007C0
FC000007C0
FC000007C0
FC000007C0
FC000007C0
FC000007C0
7800000380
3000000100
0000000000
0000000000
0000000000
0000000100
3000000380
7C000007C0
FC000007C0
FC000007C0
FC000007C0
FC000007C0
FC000007C0
FC000007C0
FC000007C0
FC000007C0
FC000007C0
FC000007C0
FC000007C0
FC000007C0
FC000007C0
FC000007C0
FC000007C0
FC000007C0
FC000007C0
FC000007C0
FC000007C0
FC000007C0
7800000380
31FFFFF100
03FFFFF800
07FFFFFC00
07FFFFFC00
03FFFFF800
01FFFFF000
ENDCHAR
STARTCHAR 0056
ENCODING 86
SWIDTH 506 0
DWIDTH 45 0
BBX 34 62 5 0
BITMAP
1000000100
3800000380
7C000007C0
FC000007C0
FC000007C0
FC000007C0
FC000007C0
FC000007C0
FC000007C0
FC000007C0
FC000007C0
FC000007C0
FC000007C0
FC000007C0
FC000007C0
FC000007C0
FC000007C0
FC000007C0
FC000007C0
FC000007C0
FC000007C0
FC000007C0
FC000007C0
FC000007C0
FC000007C0
FC000007C0
FC000007C0
78000007C0
3000000380
0000000100
0000000000
0000000000
2000000180
7C00000780
7C000007C0
FC00000FC0
7E00000FC0
7E00001FC0
7F00001F80
3F00001F80
3F00003F00
1F80003F00
1F80007F00
1FC0007E00
0FC0007E00
0FC000FC00
07E000FC00
07E000FC00
07F001F800
03F001F800
03F003F000
01F803F000
01F803F000
01FC07E000
00FC07E000
00FC0FC000
007E0FC000
007E0FC000
007E1F8000
003E0F8000
003C0F0000
0004040000
ENDCHAR
STARTCHAR 0057
ENCODING 87
SWIDTH 686 0
DWIDTH 61 0
BBX 51 62 5 0
BITMAP
10000000000100
38000000000380
7C0000000007C0
FC0000000007E0
FC0000000007E0
FC0000000007E0
FC0000000007E0
FC0000000007E0
FC0000000007E0
FC0000000007E0
FC0000000007E0
FC0000000007E0
FC0000000007E0
FC0000000007E0
FC0000000007E0
FC0000000007E0
FC0000000007E0
FC0000000007E0
FC0000000007E0
FC0000000007E0
FC0000000007E0
FC0000000007E0
FC0000000007E0
FC0000000007E0
FC0000000007E0
FC0000000007E0
FC0000000007E0
780000000003C0
30000000000180
00000000000000
00000000000000
00000000000000
10000040000100
380000E0000380
7C0001F00007C0
FC0001F00007E0
FC0001F00007E0
FC0001F00007E0
FC0001F00007E0
FC0001F00007E0
FC0001F00007E0
FC0001F00007E0
FC0001F00007E0
FC0001F00007E0
FC0001F00007E0
FC0001F00007E0
FC0001F00007E0
FC0001F00007E0
FC0001F00007E0
FC0001F00007E0
FC0001F00007E0
FC0001F00007E0
FC0001F00007E0
FC0001F00007E0
FC0001F00007E0
780000E00003C0
31FFFC47FFF180
03FFFE0FFFF800
07FFFF1FFFFC00
07FFFF1FFFFC00
03FFFE0FFFF800
01FFFC07FFF000
ENDCHAR
STARTCHAR 0058
ENCODING 88
SWIDTH 506 0
DWIDTH 45 0
BBX 34 62 5 0
BITMAP
2000000080
7800000780
7C000007C0
FC00000FC0
7E00000FC0
7E00001FC0
7F00001F80
3F00001F80
3F00003F00
1F80003F00
1F80007F00
1FC0007E00
0FC0007E00
0FC000FC00
07E000FC00
07E000FC00
07F001F800
03F001F800
03F003F000
01F803F000
01F803F000
01FC07E000
00FC07E000
00FC0FC000
007E0FC000
007E0FC000
007E1F8000
003E0F8000
003C0F0000
0004040000
0000000000
0000000000
0004040000
003C0F0000
003E0F8000
007E1F8000
007E0FC000
007E0FC000
00FC0FC000
00FC07E000
01FC07E000
01F803F000
01F803F000
03F003F000
03F001F800
07F001F800
07E000FC00
07E000FC00
0FC000FC00
0FC0007E00
1FC0007E00
1F80007F00
1F80003F00
3F00003F00
3F00001F80
7F00001F80
7E00001FC0
7E00000FC0
FC00000FC0
7C000007C0
7800000780
2000000080
ENDCHAR
STARTCHAR 0059
ENCODING 89
SWIDTH 506 0
DWIDTH 45 0
BBX 34 62 5 0
BITMAP
1000000100
3800000380
7C000007C0
FC000007C0
FC000007C0
FC000007C0
FC000007C0
FC000007C0
FC000007C0
FC000007C0
FC000007C0
FC000007C0
FC000007C0
FC000007C0
FC000007C0
FC000007C0
FC000007C0
FC000007C0
FC000007C0
FC000007C0
FC000007C0
FC000007C0
FC000007C0
FC000007C0
FC000007C0
FC000007C0
FC000007C0
7800000380
31FFFFF100
03FFFFF900
07FFFFFC00
07FFFFFC00
03FFFFF800
01FFFFF100
0000000380
00000007C0
00000007C0
00000007C0
00000007C0
00000007C0
00000007C0
00000007C0
00000007C0
00000007C0
00000007C0
00000007C0
00000007C0
00000007C0
00000007C0
00000007C0
00000007C0
00000007C0
00000007C0
00000007C0
00000007C0
0000000380
01FFFFF100
03FFFFF800
07FFFFFC00
07FFFFFC00
03FFFFF800
01FFFFF000
ENDCHAR
STARTCHAR 005A
ENCODING 90
SWIDTH 506 0
DWIDTH 45 0
BBX 33 62 6 0
BITMAP
3FFFFFC000
7FFFFFE000
FFFFFFF000
FFFFFFF000
7FFFFFE000
3FFFFFC000
0000000200
0000001E00
0000003E00
0000007F00
0000007E00
000000FE00
000000FC00
000001FC00
000001F800
000003F800
000007F000
000007E000
00000FE000
00000FC000
00001FC000
00003F8000
00003F0000
00007F0000
00007E0000
0000FE0000
0000FC0000
0000F80000
0000F80000
0000400000
0000000000
0000000000
0003000000
001F000000
001F000000
003F000000
003F000000
007F000000
00FE000000
00FC000000
01FC000000
01F8000000
03F8000000
07F0000000
07E0000000
0FE0000000
0FC0000000
1FC0000000
1F80000000
3F00000000
7F00000000
7E00000000
7E00000000
7C00000000
3800000000
0000000000
01FFFFFE00
03FFFFFF00
07FFFFFF80
07FFFFFF80
03FFFFFF00
01FFFFFE00
ENDCHAR
STARTCHAR 005B
ENCODING 91
SWIDTH 382 0
DWIDTH 34 0
BBX 23 62 5 0
BITMAP
3FFFF8
1FFFFC
8FFFFE
C7FFFE
E3FFFC
F1FFF8
F80000
FC0000
FC0000
FC0000
FC0000
FC0000
FC0000
FC0000
FC0000
FC0000
FC0000
FC0000
FC0000
FC0000
FC0000
FC0000
FC0000
FC0000
FC0000
FC0000
FC0000
780000
300000
000000
000000
000000
000000
300000
780000
FC0000
FC0000
FC0000
FC0000
FC0000
FC0000
FC0000
FC0000
FC0000
FC0000
FC0000
FC0000
FC0000
FC0000
FC0000
FC0000
FC0000
FC0000
FC0000
FC0000
F80000
F1FFF8
E3FFFC
C7FFFE
8FFFFE
1FFFFC
3FFFF8
ENDCHAR
STARTCHAR 005C
ENCODING 92
SWIDTH 540 0
DWIDTH 48 0
BBX 38 61 5 0
BITMAP
7800000000
7C00000000
7C00000000
FE00000000
7E00000000
3F00000000
3F80000000
1F80000000
1FC0000000
0FC0000000
0FE0000000
07F0000000
03F0000000
03F8000000
01F8000000
01FC000000
00FC000000
00FE000000
007F000000
003F000000
003F800000
001F800000
001FC00000
000FC00000
000FE00000
0007E00000
0003E00000
0003E00000
0000E00000
0000000000
0000000000
0000000000
00000E0000
00001F0000
00001F8000
00001F8000
00001FC000
00000FE000
000007E000
000007F000
000003F000
000003F800
000001F800
000001FC00
000000FE00
0000007E00
0000007F00
0000003F00
0000003F80
0000001F80
0000001FC0
0000000FE0
00000007E0
00000007F0
00000003F0
00000003F8
00000001F8
00000000FC
00000000F8
0000000078
0000000018
ENDCHAR
STARTCHAR 005D
ENCODING 93
SWIDTH 382 0
DWIDTH 34 0
BBX 22 62 6 0
BITMAP
3FFFF8
7FFFF0
FFFFE4
FFFFCC
7FFF8C
3FFF1C
00003C
00007C
00007C
00007C
00007C
00007C
00007C
00007C
00007C
00007C
00007C
00007C
00007C
00007C
00007C
00007C
00007C
00007C
00007C
00007C
00007C
00007C
000038
000000
000000
000000
000000
000038
00007C
00007C
00007C
00007C
00007C
00007C
00007C
00007C
00007C
00007C
00007C
00007C
00007C
00007C
00007C
00007C
00007C
00007C
00007C
00007C
00007C
00003C
3FFF1C
7FFF8C
FFFFC4
FFFFE4
7FFFF0
3FFFF8
ENDCHAR
STARTCHAR 005E
ENCODING 94
SWIDTH 821 0
DWIDTH 73 0
BBX 62 15 6 27
BITMAP
0000006038000000
000003F8FE000000
00001FF8FFC00000
00007FF8FFF00000
0003FFF07FFE0000
000FFFE03FFF8000
007FFF800FFFF000
01FFFC0001FFFC00
0FFFF000007FFF80
3FFF8000000FFFF0
7FFE00000001FFF0
FFF0000000007FF8
FF80000000000FF8
FE000000000003FC
3000000000000060
ENDCHAR
STARTCHAR 005F
ENCODING 95
SWIDTH 630 0
DWIDTH 56 0
BBX 44 6 6 0
BITMAP
3FFFFFFFFFC0
7FFFFFFFFFE0
FFFFFFFFFFF0
FFFFFFFFFFF0
7FFFFFFFFFE0
3FFFFFFFFFC0
ENDCHAR
STARTCHAR 0061
ENCODING 97
SWIDTH 506 0
DWIDTH 45 0
BBX 34 62 5 0
BITMAP
01FFFFF000
03FFFFF800
07FFFFFC00
07FFFFFC00
03FFFFF900
31FFFFF380
78000007C0
FC000007C0
FC000007C0
FC000007C0
FC000007C0
FC000007C0
FC000007C0
FC000007C0
FC000007C0
FC000007C0
FC000007C0
FC000007C0
FC000007C0
FC000007C0
FC000007C0
FC000007C0
FC000007C0
FC000007C0
FC000007C0
FC000007C0
FC000007C0
78000007C0
31FFFFF380
03FFFFF900
07FFFFFC00
07FFFFFC00
03FFFFF800
31FFFFF100
7800000380
FC000007C0
FC000007C0
FC000007C0
FC000007C0
FC000007C0
FC000007C0
FC000007C0
FC000007C0
FC000007C0
FC000007C0
FC000007C0
FC000007C0
FC000007C0
FC000007C0
FC000007C0
FC000007C0
FC000007C0
FC000007C0
FC000007C0
FC000007C0
FC000007C0
FC000007C0
FC000007C0
FC000007C0
7C000007C0
3800000380
1000000100
ENDCHAR
STARTCHAR 0062
ENCODING 98
SWIDTH 506 0
DWIDTH 45 0
BBX 34 62 5 0
BITMAP
3FFFFFF000
1FFFFFF800
8FFFFFFC00
C7FFFFFC00
E3FFFFF900
F1FFFFF380
F8000007C0
FC000007C0
FC000007C0
FC000007C0
FC000007C0
FC000007C0
FC000007C0
FC000007C0
FC000007C0
FC000007C0
FC000007C0
FC000007C0
FC000007C0
FC000007C0
FC000007C0
FC000007C0
FC000007C0
FC000007C0
FC000007C0
FC000007C0
FC000007C0
78000007C0
31FFFFF380
03FFFFF900
07FFFFFC00
07FFFFFC00
03FFFFF900
31FFFFF380
78000007C0
FC000007C0
FC000007C0
FC000007C0
FC000007C0
FC000007C0
FC000007C0
FC000007C0
FC000007C0
FC000007C0
FC000007C0
FC000007C0
FC000007C0
FC000007C0
FC000007C0
FC000007C0
FC000007C0
FC000007C0
FC000007C0
FC000007C0
FC000007C0
F800000380
F1FFFFF100
E3FFFFF800
C7FFFFFC00
8FFFFFFC00
1FFFFFF800
3FFFFFF000
ENDCHAR
STARTCHAR 0063
ENCODING 99
SWIDTH 450 0
DWIDTH 40 0
BBX 30 62 5 0
BITMAP
01FFFFF0
03FFFFF8
07FFFFFC
07FFFFFC
03FFFFF8
31FFFFF0
78000000
FC000000
FC000000
FC000000
FC000000
FC000000
FC000000
FC000000
FC000000
FC000000
FC000000
FC000000
FC000000
FC000000
FC000000
FC000000
FC000000
FC000000
FC000000
FC000000
FC000000
78000000
30000000
00000000
00000000
00000000
00000000
30000000
78000000
FC000000
FC000000
FC000000
FC000000
FC000000
FC000000
FC000000
FC000000
FC000000
FC000000
FC000000
FC000000
FC000000
FC000000
FC000000
FC000000
FC000000
FC000000
FC000000
FC000000
78000000
31FFFFF0
03FFFFF8
07FFFFFC
07FFFFFC
03FFFFF8
01FFFFF0
ENDCHAR
STARTCHAR 0064
ENCODING 100
SWIDTH 506 0
DWIDTH 45 0
BBX 34 62 5 0
BITMAP
3FFFFFF000
1FFFFFF800
8FFFFFFC00
C7FFFFFC00
E3FFFFF900
F1FFFFF380
F800000380
FC000007C0
FC000007C0
FC000007C0
FC000007C0
FC000007C0
FC000007C0
FC000007C0
FC000007C0
FC000007C0
FC000007C0
FC000007C0
FC000007C0
FC000007C0
FC000007C0
FC000007C0
FC000007C0
FC000007C0
FC000007C0
FC000007C0
FC000007C0
78000007C0
3000000380
0000000100
0000000000
0000000000
0000000100
3000000380
78000007C0
FC000007C0
FC000007C0
FC000007C0
FC000007C0
FC000007C0
FC000007C0
FC000007C0
FC000007C0
FC000007C0
FC000007C0
FC000007C0
FC000007C0
FC000007C0
FC000007C0
FC000007C0
FC000007C0
FC000007C0
FC000007C0
FC000007C0
FC000007C0
F800000380
F1FFFFF100
E3FFFFF800
C7FFFFFC00
8FFFFFFC00
1FFFFFF800
3FFFFFF000
ENDCHAR
STARTCHAR 0065
ENCODING 101
SWIDTH 450 0
DWIDTH 40 0
BBX 30 62 5 0
BITMAP
01FFFFF0
03FFFFF8
07FFFFFC
07FFFFFC
03FFFFF8
31FFFFF0
78000000
FC000000
FC000000
FC000000
FC000000
FC000000
FC000000
FC000000
FC000000
FC000000
FC000000
FC000000
FC000000
FC000000
FC000000
FC000000
FC000000
FC000000
FC000000
FC000000
FC000000
78000000
31FFFFF0
03FFFFF8
07FFFFFC
07FFFFFC
03FFFFF8
31FFFFF0
78000000
FC000000
FC000000
FC000000
FC000000
FC000000
FC000000
FC000000
FC000000
FC000000
FC000000
FC000000
FC000000
FC000000
FC000000
FC000000
FC000000
FC000000
FC000000
FC000000
FC000000
78000000
31FFFFF0
03FFFFF8
07FFFFFC
07FFFFFC
03FFFFF8
01FFFFF0
ENDCHAR
STARTCHAR 0066
ENCODING 102
SWIDTH 450 0
DWIDTH 40 0
BBX 30 62 5 0
BITMAP
01FFFFF0
03FFFFF8
07FFFFFC
07FFFFFC
03FFFFF8
31FFFFF0
78000000
FC000000
FC000000
FC000000
FC000000
FC000000
FC000000
FC000000
FC000000
FC000000
FC000000
FC000000
FC000000
FC000000
FC000000
FC000000
FC000000
FC000000
FC000000
FC000000
FC000000
78000000
31FFFFF0
03FFFFF8
07FFFFFC
07FFFFFC
03FFFFF8
31FFFFF0
78000000
FC000000
FC000000
FC000000
FC000000
FC000000
FC000000
FC000000
FC000000
FC000000
FC000000
FC000000
FC000000
FC000000
FC000000
FC000000
FC000000
FC000000
FC000000
FC000000
FC000000
FC000000
FC000000
FC000000
FC000000
7C000000
38000000
10000000
ENDCHAR
STARTCHAR 0067
ENCODING 103
SWIDTH 506 0
DWIDTH 45 0
BBX 34 62 5 0
BITMAP
01FFFFF000
03FFFFF800
07FFFFFC00
07FFFFFC00
03FFFFF800
31FFFFF000
7800000000
FC00000000
FC00000000
FC00000000
FC00000000
FC00000000
FC00000000
FC00000000
FC00000000
FC00000000
FC00000000
FC00000000
FC00000000
FC00000000
FC00000000
FC00000000
FC00000000
FC00000000
FC00000000
FC00000000
FC00000000
7800000000
3003FFF000
0007FFF800
000FFFFC00
000FFFFC00
0007FFF800
3003FFF100
7800000380
FC000007C0
FC000007C0
FC000007C0
FC000007C0
FC000007C0
FC000007C0
FC000007C0
FC000007C0
FC000007C0
FC000007C0
FC000007C0
FC000007C0
FC000007C0
FC000007C0
FC000007C0
FC000007C0
FC000007C0
FC000007C0
FC000007C0
FC000007C0
7800000380
31FFFFF100
03FFFFF800
07FFFFFC00
07FFFFFC00
03FFFFF800
01FFFFF000
ENDCHAR
STARTCHAR 0068
ENCODING 104
SWIDTH 506 0
DWIDTH 45 0
BBX 34 62 5 0
BITMAP
1000000100
3800000380
7C000007C0
FC000007C0
FC000007C0
FC000007C0
FC000007C0
FC000007C0
FC000007C0
FC000007C0
FC000007C0
FC000007C0
FC000007C0
FC000007C0
FC000007C0
FC000007C0
FC000007C0
FC000007C0
FC000007C0
FC000007C0
FC000007C0
FC000007C0
FC000007C0
FC000007C0
FC000007C0
FC000007C0
FC000007C0
7800000380
31FFFFF380
03FFFFF900
07FFFFFC00
07FFFFFC00
03FFFFF800
31FFFFF100
7800000380
FC000007C0
FC000007C0
FC000007C0
FC000007C0
FC000007C0
FC000007C0
FC000007C0
FC000007C0
FC000007C0
FC000007C0
FC000007C0
FC000007C0
FC000007C0
FC000007C0
FC000007C0
FC000007C0
FC000007C0
FC000007C0
FC000007C0
FC000007C0
FC000007C0
FC000007C0
FC000007C0
FC000007C0
7C000007C0
3800000380
1000000100
ENDCHAR
STARTCHAR 0069
ENCODING 105
SWIDTH 180 0
DWIDTH 16 0
BBX 6 62 5 0
BITMAP
10
38
7C
FC
FC
FC
FC
FC
FC
FC
FC
FC
FC
FC
FC
FC
FC
FC
FC
FC
FC
FC
FC
FC
FC
FC
FC
78
30
00
00
00
00
30
78
FC
FC
FC
FC
FC
FC
FC
FC
FC
FC
FC
FC
FC
FC
FC
FC
FC
FC
FC
FC
FC
FC
FC
FC
7C
38
10
ENDCHAR
STARTCHAR 006A
ENCODING 106
SWIDTH 506 0
DWIDTH 45 0
BBX 34 62 5 0
BITMAP
0000000100
0000000380
00000007C0
00000007C0
00000007C0
00000007C0
00000007C0
00000007C0
00000007C0
00000007C0
00000007C0
00000007C0
00000007C0
00000007C0
00000007C0
00000007C0
00000007C0
00000007C0
00000007C0
00000007C0
00000007C0
00000007C0
00000007C0
00000007C0
00000007C0
00000007C0
00000007C0
0000000380
0000000100
0000000000
0000000000
0000000000
0000000100
3000000380
7C000007C0
FC000007C0
FC000007C0
FC000007C0
FC000007C0
FC000007C0
FC000007C0
FC000007C0
FC000007C0
FC000007C0
FC000007C0
FC000007C0
FC000007C0
FC000007C0
FC000007C0
FC000007C0
FC000007C0
FC000007C0
FC000007C0
FC000007C0
FC000007C0
7800000380
31FFFFF100
03FFFFF800
07FFFFFC00
07FFFFFC00
03FFFFF800
01FFFFF000
ENDCHAR
STARTCHAR 006B
ENCODING 107
SWIDTH 506 0
DWIDTH 45 0
BBX 34 62 5 0
BITMAP
10000003C0
38000007C0
7C00000FC0
FC00001FC0
FC00003FC0
FC00007F80
FC0000FF00
FC0001FE00
FC0003FC00
FC0007F800
FC000FF000
FC001FE000
FC003FC000
FC007F8000
FC00FF0000
FC01FE0000
FC03FC0000
FC07F80000
FC0FF00000
FC1FE00000
FC3FC00000
FC7F800000
FCFF000000
FCFE000000
FCFC000000
FCF8000000
FC00000000
7800000000
31FFFFF000
03FFFFF800
07FFFFFC00
07FFFFFC00
03FFFFF900
31FFFFF380
7800000380
FC000007C0
FC000007C0
FC000007C0
FC000007C0
FC000007C0
FC000007C0
FC000007C0
FC000007C0
FC000007C0
FC000007C0
FC000007C0
FC000007C0
FC000007C0
FC000007C0
FC000007C0
FC000007C0
FC000007C0
FC000007C0
FC000007C0
FC000007C0
FC000007C0
FC000007C0
FC000007C0
FC000007C0
7C000007C0
3800000380
1000000100
ENDCHAR
STARTCHAR 006C
ENCODING 108
SWIDTH 450 0
DWIDTH 40 0
BBX 30 62 5 0
BITMAP
10000000
38000000
7C000000
FC000000
FC000000
FC000000
FC000000
FC000000
FC000000
FC000000
FC000000
FC000000
FC000000
FC000000
FC000000
FC000000
FC000000
FC000000
FC000000
FC000000
FC000000
FC000000
FC000000
FC000000
FC000000
FC000000
FC000000
78000000
30000000
00000000
00000000
00000000
00000000
30000000
7C000000
FC000000
FC000000
FC000000
FC000000
FC000000
FC000000
FC000000
FC000000
FC000000
FC000000
FC000000
FC000000
FC000000
FC000000
FC000000
FC000000
FC000000
FC000000
FC000000
FC000000
78000000
31FFFFF0
03FFFFF8
07FFFFFC
07FFFFFC
03FFFFF8
01FFFFF0
ENDCHAR
STARTCHAR 006D
ENCODING 109
SWIDTH 686 0
DWIDTH 61 0
BBX 51 62 5 0
BITMAP
01FFFC07FFF000
03FFFE0FFFF800
07FFFF1FFFFC00
07FFFF1FFFFC00
03FFFE0FFFF800
31FFFC47FFF180
780000E00003C0
FC0001F00007E0
FC0001F00007E0
FC0001F00007E0
FC0001F00007E0
FC0001F00007E0
FC0001F00007E0
FC0001F00007E0
FC0001F00007E0
FC0001F00007E0
FC0001F00007E0
FC0001F00007E0
FC0001F00007E0
FC0001F00007E0
FC0001F00007E0
FC0001F00007E0
FC0001F00007E0
FC0001F00007E0
FC0001F00007E0
FC0001F00007E0
FC0001F00007E0
7C0001F00007C0
380000E0000380
10000040000100
00000000000000
00000000000000
00000000000000
30000000000180
780000000003C0
FC0000000007E0
FC0000000007E0
FC0000000007E0
FC0000000007E0
FC0000000007E0
FC0000000007E0
FC0000000007E0
FC0000000007E0
FC0000000007E0
FC0000000007E0
FC0000000007E0
FC0000000007E0
FC0000000007E0
FC0000000007E0
FC0000000007E0
FC0000000007E0
FC0000000007E0
FC0000000007E0
FC0000000007E0
FC0000000007E0
FC0000000007E0
FC0000000007E0
FC0000000007E0
FC0000000007E0
7C0000000007C0
38000000000380
10000000000100
ENDCHAR
STARTCHAR 006E
ENCODING 110
SWIDTH 506 0
DWIDTH 45 0
BBX 34 62 5 0
BITMAP
01FFFFF000
03FFFFF800
07FFFFFC00
07FFFFFC00
03FFFFF900
31FFFFF380
7800000380
FC000007C0
FC000007C0
FC000007C0
FC000007C0
FC000007C0
FC000007C0
FC000007C0
FC000007C0
FC000007C0
FC000007C0
FC000007C0
FC000007C0
FC000007C0
FC000007C0
FC000007C0
FC000007C0
FC000007C0
FC000007C0
FC000007C0
FC000007C0
7C000007C0
3800000380
1000000100
0000000000
0000000000
0000000000
3000000100
7800000380
FC000007C0
FC000007C0
FC000007C0
FC000007C0
FC000007C0
FC000007C0
FC000007C0
FC000007C0
FC000007C0
FC000007C0
FC000007C0
FC000007C0
FC000007C0
FC000007C0
FC000007C0
FC000007C0
FC000007C0
FC000007C0
FC000007C0
FC000007C0
FC000007C0
FC000007C0
FC000007C0
FC000007C0
7C000007C0
3800000380
1000000100
ENDCHAR
STARTCHAR 006F
ENCODING 111
SWIDTH 506 0
DWIDTH 45 0
BBX 34 62 5 0
BITMAP
01FFFFF000
03FFFFF800
07FFFFFC00
07FFFFFC00
03FFFFF900
31FFFFF380
7800000380
FC000007C0
FC000007C0
FC000007C0
FC000007C0
FC000007C0
FC000007C0
FC000007C0
FC000007C0
FC000007C0
FC000007C0
FC000007C0
FC000007C0
FC000007C0
FC000007C0
FC000007C0
FC000007C0
FC000007C0
FC000007C0
FC000007C0
FC000007C0
78000007C0
3000000380
0000000100
0000000000
0000000000
0000000100
3000000380
78000007C0
FC000007C0
FC000007C0
FC000007C0
FC000007C0
FC000007C0
FC000007C0
FC000007C0
FC000007C0
FC000007C0
FC000007C0
FC000007C0
FC000007C0
FC000007C0
FC000007C0
FC000007C0
FC000007C0
FC000007C0
FC000007C0
FC000007C0
FC000007C0
7800000380
31FFFFF100
03FFFFF800
07FFFFFC00
07FFFFFC00
03FFFFF800
01FFFFF000
ENDCHAR
STARTCHAR 0070
ENCODING 112
SWIDTH 506 0
DWIDTH 45 0
BBX 34 62 5 0
BITMAP
01FFFFF000
03FFFFF800
07FFFFFC00
07FFFFFC00
03FFFFF900
31FFFFF380
78000007C0
FC000007C0
FC000007C0
FC000007C0
FC000007C0
FC000007C0
FC000007C0
FC000007C0
FC000007C0
FC000007C0
FC000007C0
FC000007C0
FC000007C0
FC000007C0
FC000007C0
FC000007C0
FC000007C0
FC000007C0
FC000007C0
FC000007C0
FC000007C0
7800000380
31FFFFF380
03FFFFF900
07FFFFFC00
07FFFFFC00
03FFFFF800
31FFFFF000
7800000000
FC00000000
FC00000000
FC00000000
FC00000000
FC00000000
FC00000000
FC00000000
FC00000000
FC00000000
FC00000000
FC00000000
FC00000000
FC00000000
FC00000000
FC00000000
FC00000000
FC00000000
FC00000000
FC00000000
FC00000000
FC00000000
FC00000000
FC00000000
FC00000000
7C00000000
3800000000
1000000000
ENDCHAR
STARTCHAR 0071
ENCODING 113
SWIDTH 506 0
DWIDTH 45 0
BBX 34 62 5 0
BITMAP
01FFFFF000
03FFFFF800
07FFFFFC00
07FFFFFC00
03FFFFF800
31FFFFF100
7800000380
FC000007C0
FC000007C0
FC000007C0
FC000007C0
FC000007C0
FC000007C0
FC000007C0
FC000007C0
FC000007C0
FC000007C0
FC000007C0
FC000007C0
FC000007C0
FC000007C0
FC000007C0
FC000007C0
FC000007C0
FC000007C0
FC000007C0
FC000007C0
78000007C0
3000000380
0000000100
0000000000
0000000000
0000000100
3000000380
78000007C0
FC000007C0
FC000007C0
FC000007C0
FC000007C0
FC000007C0
FC000007C0
FC000007C0
FC000007C0
FC000007C0
FC000007C0
FC000007C0
FC000007C0
FC000007C0
FC000007C0
FC00000380
FC00000100
FC00007C00
FC00007E00
FC00007F00
FC00007F80
7800003FC0
31FFFF9FC0
03FFFFCFC0
07FFFFE7C0
07FFFFE3C0
03FFFFC000
01FFFF8000
ENDCHAR
STARTCHAR 0072
ENCODING 114
SWIDTH 506 0
DWIDTH 45 0
BBX 34 62 5 0
BITMAP
01FFFFF000
03FFFFF800
07FFFFFC00
07FFFFFC00
03FFFFF900
31FFFFF380
78000007C0
FC000007C0
FC000007C0
FC000007C0
FC000007C0
FC000007C0
FC000007C0
FC000007C0
FC000007C0
FC000007C0
FC000007C0
FC000007C0
FC000007C0
FC000007C0
FC000007C0
FC000007C0
FC000007C0
FC000007C0
FC000007C0
FC000007C0
FC000007C0
7800000380
31FFFFF380
03FFFFF900
07FFFFFC00
07FFFFFC00
03FFFFF800
31FFFFF000
7800000000
FC00000000
FCF8000000
FCFC000000
FCFE000000
FCFF000000
FC7F800000
FC3FC00000
FC1FE00000
FC0FF00000
FC07F80000
FC03FC0000
FC01FE0000
FC00FF0000
FC007F8000
FC003FC000
FC001FE000
FC000FF000
FC0007F800
FC0003FC00
FC0001FE00
FC0000FF00
FC00007F80
FC00003FC0
FC00001FC0
7C00000FC0
38000007C0
10000003C0
ENDCHAR
STARTCHAR 0073
ENCODING 115
SWIDTH 506 0
DWIDTH 45 0
BBX 34 62 5 0
BITMAP
01FFFFF000
03FFFFF800
07FFFFFC00
07FFFFFC00
03FFFFF800
31FFFFF000
7800000000
FC00000000
FC00000000
FC00000000
FC00000000
FC00000000
FC00000000
FC00000000
FC00000000
FC00000000
FC00000000
FC00000000
FC00000000
FC00000000
FC00000000
FC00000000
FC00000000
FC00000000
FC00000000
FC00000000
FC00000000
7800000000
31FFFFF000
03FFFFF800
07FFFFFC00
07FFFFFC00
03FFFFF800
01FFFFF100
0000000380
00000007C0
00000007C0
00000007C0
00000007C0
00000007C0
00000007C0
00000007C0
00000007C0
00000007C0
00000007C0
00000007C0
00000007C0
00000007C0
00000007C0
00000007C0
00000007C0
00000007C0
00000007C0
00000007C0
00000007C0
0000000380
01FFFFF100
03FFFFF800
07FFFFFC00
07FFFFFC00
03FFFFF800
01FFFFF000
ENDCHAR
STARTCHAR 0074
ENCODING 116
SWIDTH 585 0
DWIDTH 52 0
BBX 40 62 6 0
BITMAP
3FFF00FFFC
7FFF81FFFE
FFFFC3FFFF
FFFFC3FFFF
7FFF81FFFE
3FFF18FFFC
00003C0000
00007E0000
00007E0000
00007E0000
00007E0000
00007E0000
00007E0000
00007E0000
00007E0000
00007E0000
00007E0000
00007E0000
00007E0000
00007E0000
00007E0000
00007E0000
00007E0000
00007E0000
00007E0000
00007E0000
00007E0000
00003C0000
0000180000
0000000000
0000000000
0000000000
0000000000
0000180000
00003C0000
00007E0000
00007E0000
00007E0000
00007E0000
00007E0000
00007E0000
00007E0000
00007E0000
00007E0000
00007E0000
00007E0000
00007E0000
00007E0000
00007E0000
00007E0000
00007E0000
00007E0000
00007E0000
00007E0000
00007E0000
00007E0000
00007E0000
00007E0000
00007E0000
00007E0000
00003C0000
0000080000
ENDCHAR
STARTCHAR 0075
ENCODING 117
SWIDTH 506 0
DWIDTH 45 0
BBX 34 62 5 0
BITMAP
1000000100
3800000380
7C000007C0
FC000007C0
FC000007C0
FC000007C0
FC000007C0
FC000007C0
FC000007C0
FC000007C0
FC000007C0
FC000007C0
FC000007C0
FC000007C0
FC000007C0
FC000007C0
FC000007C0
FC000007C0
FC000007C0
FC000007C0
FC000007C0
FC000007C0
FC000007C0
FC000007C0
FC000007C0
FC000007C0
FC000007C0
7800000380
3000000100
0000000000
0000000000
0000000000
0000000100
3000000380
7C000007C0
FC000007C0
FC000007C0
FC000007C0
FC000007C0
FC000007C0
FC000007C0
FC000007C0
FC000007C0
FC000007C0
FC000007C0
FC000007C0
FC000007C0
FC000007C0
FC000007C0
FC000007C0
FC000007C0
FC000007C0
FC000007C0
FC000007C0
FC000007C0
7800000380
31FFFFF100
03FFFFF800
07FFFFFC00
07FFFFFC00
03FFFFF800
01FFFFF000
ENDCHAR
STARTCHAR 0076
ENCODING 118
SWIDTH 506 0
DWIDTH 45 0
BBX 34 62 5 0
BITMAP
1000000100
3800000380
7C000007C0
FC000007C0
FC000007C0
FC000007C0
FC000007C0
FC000007C0
FC000007C0
FC000007C0
FC000007C0
FC000007C0
FC000007C0
FC000007C0
FC000007C0
FC000007C0
FC000007C0
FC000007C0
FC000007C0
FC000007C0
FC000007C0
FC000007C0
FC000007C0
FC000007C0
FC000007C0
FC000007C0
FC000007C0
78000007C0
3000000380
0000000100
0000000000
0000000000
2000000180
7C00000780
7C000007C0
FC00000FC0
7E00000FC0
7E00001FC0
7F00001F80
3F00001F80
3F00003F00
1F80003F00
1F80007F00
1FC0007E00
0FC0007E00
0FC000FC00
07E000FC00
07E000FC00
07F001F800
03F001F800
03F003F000
01F803F000
01F803F000
01FC07E000
00FC07E000
00FC0FC000
007E0FC000
007E0FC000
007E1F8000
003E0F8000
003C0F0000
0004040000
ENDCHAR
STARTCHAR 0077
ENCODING 119
SWIDTH 686 0
DWIDTH 61 0
BBX 51 62 5 0
BITMAP
10000000000100
38000000000380
7C0000000007C0
FC0000000007E0
FC0000000007E0
FC0000000007E0
FC0000000007E0
FC0000000007E0
FC0000000007E0
FC0000000007E0
FC0000000007E0
FC0000000007E0
FC0000000007E0
FC0000000007E0
FC0000000007E0
FC0000000007E0
FC0000000007E0
FC0000000007E0
FC0000000007E0
FC0000000007E0
FC0000000007E0
FC0000000007E0
FC0000000007E0
FC0000000007E0
FC0000000007E0
FC0000000007E0
FC0000000007E0
780000000003C0
30000000000180
00000000000000
00000000000000
00000000000000
10000040000100
380000E0000380
7C0001F00007C0
FC0001F00007E0
FC0001F00007E0
FC0001F00007E0
FC0001F00007E0
FC0001F00007E0
FC0001F00007E0
FC0001F00007E0
FC0001F00007E0
FC0001F00007E0
FC0001F00007E0
FC0001F00007E0
FC0001F00007E0
FC0001F00007E0
FC0001F00007E0
FC0001F00007E0
FC0001F00007E0
FC0001F00007E0
FC0001F00007E0
FC0001F00007E0
FC0001F00007E0
780000E00003C0
31FFFC47FFF180
03FFFE0FFFF800
07FFFF1FFFFC00
07FFFF1FFFFC00
03FFFE0FFFF800
01FFFC07FFF000
ENDCHAR
STARTCHAR 0078
ENCODING 120
SWIDTH 506 0
DWIDTH 45 0
BBX 34 62 5 0
BITMAP
2000000080
7800000780
7C000007C0
FC00000FC0
7E00000FC0
7E00001FC0
7F00001F80
3F00001F80
3F00003F00
1F80003F00
1F80007F00
1FC0007E00
0FC0007E00
0FC000FC00
07E000FC00
07E000FC00
07F001F800
03F001F800
03F003F000
01F803F000
01F803F000
01FC07E000
00FC07E000
00FC0FC000
007E0FC000
007E0FC000
007E1F8000
003E0F8000
003C0F0000
0004040000
0000000000
0000000000
0004040000
003C0F0000
003E0F8000
007E1F8000
007E0FC000
007E0FC000
00FC0FC000
00FC07E000
01FC07E000
01F803F000
01F803F000
03F003F000
03F001F800
07F001F800
07E000FC00
07E000FC00
0FC000FC00
0FC0007E00
1FC0007E00
1F80007F00
1F80003F00
3F00003F00
3F00001F80
7F00001F80
7E00001FC0
7E00000FC0
FC00000FC0
7C000007C0
7800000780
2000000080
ENDCHAR
STARTCHAR 0079
ENCODING 121
SWIDTH 506 0
DWIDTH 45 0
BBX 34 62 5 0
BITMAP
1000000100
3800000380
7C000007C0
FC000007C0
FC000007C0
FC000007C0
FC000007C0
FC000007C0
FC000007C0
FC000007C0
FC000007C0
FC000007C0
FC000007C0
FC000007C0
FC000007C0
FC000007C0
FC000007C0
FC000007C0
FC000007C0
FC000007C0
FC000007C0
FC000007C0
FC000007C0
FC000007C0
FC000007C0
FC000007C0
FC000007C0
7800000380
31FFFFF100
03FFFFF900
07FFFFFC00
07FFFFFC00
03FFFFF800
01FFFFF100
0000000380
00000007C0
00000007C0
00000007C0
00000007C0
00000007C0
00000007C0
00000007C0
00000007C0
00000007C0
00000007C0
00000007C0
00000007C0
00000007C0
00000007C0
00000007C0
00000007C0
00000007C0
00000007C0
00000007C0
00000007C0
0000000380
01FFFFF100
03FFFFF800
07FFFFFC00
07FFFFFC00
03FFFFF800
01FFFFF000
ENDCHAR
STARTCHAR 007A
ENCODING 122
SWIDTH 506 0
DWIDTH 45 0
BBX 33 62 6 0
BITMAP
3FFFFFC000
7FFFFFE000
FFFFFFF000
FFFFFFF000
7FFFFFE000
3FFFFFC000
0000000200
0000001E00
0000003E00
0000007F00
0000007E00
000000FE00
000000FC00
000001FC00
000001F800
000003F800
000007F000
000007E000
00000FE000
00000FC000
00001FC000
00003F8000
00003F0000
00007F0000
00007E0000
0000FE0000
0000FC0000
0000F80000
0000F80000
0000400000
0000000000
0000000000
0003000000
001F000000
001F000000
003F000000
003F000000
007F000000
00FE000000
00FC000000
01FC000000
01F8000000
03F8000000
07F0000000
07E0000000
0FE0000000
0FC0000000
1FC0000000
1F80000000
3F00000000
7F00000000
7E00000000
7E00000000
7C00000000
3800000000
0000000000
01FFFFFE00
03FFFFFF00
07FFFFFF80
07FFFFFF80
03FFFFFF00
01FFFFFE00
ENDCHAR
STARTCHAR 007B
ENCODING 123
SWIDTH 483 0
DWIDTH 43 0
BBX 31 62 6 0
BITMAP
0001FFF8
0003FFFC
0007FFFE
0007FFFE
0003FFFC
0031FFF8
00780000
00FC0000
00FC0000
00FC0000
00FC0000
00FC0000
00FC0000
00FC0000
00FC0000
00FC0000
00FC0000
00FC0000
00FC0000
00FC0000
00FC0000
00FC0000
00FC0000
00FC0000
00FC0000
00FC0000
00FC0000
00780000
3E300000
7F000000
FF800000
FF800000
7F000000
3E300000
00780000
00FC0000
00FC0000
00FC0000
00FC0000
00FC0000
00FC0000
00FC0000
00FC0000
00FC0000
00FC0000
00FC0000
00FC0000
00FC0000
00FC0000
00FC0000
00FC0000
00FC0000
00FC0000
00FC0000
00FC0000
00780000
0031FFF8
0003FFFC
0007FFFE
0007FFFE
0003FFFC
0001FFF8
ENDCHAR
STARTCHAR 007C
ENCODING 124
SWIDTH 180 0
DWIDTH 16 0
BBX 6 69 5 0
BITMAP
10
38
7C
FC
FC
FC
FC
FC
FC
FC
FC
FC
FC
FC
FC
FC
FC
FC
FC
FC
FC
FC
FC
FC
FC
FC
FC
FC
FC
FC
FC
FC
FC
FC
FC
FC
FC
FC
FC
FC
FC
FC
FC
FC
FC
FC
FC
FC
FC
FC
FC
FC
FC
FC
FC
FC
FC
FC
FC
FC
FC
FC
FC
FC
FC
FC
7C
38
10
ENDCHAR
STARTCHAR 007D
ENCODING 125
SWIDTH 483 0
DWIDTH 43 0
BBX 31 62 6 0
BITMAP
3FFF0000
7FFF8000
FFFFC000
FFFFC000
7FFF8000
3FFF1800
00003C00
00007C00
00007C00
00007C00
00007C00
00007C00
00007C00
00007C00
00007C00
00007C00
00007C00
00007C00
00007C00
00007C00
00007C00
00007C00
00007C00
00007C00
00007C00
00007C00
00007C00
00003C00
000018F8
000001FC
000003FE
000003FE
000001FC
000018F8
00003C00
00007C00
00007C00
00007C00
00007C00
00007C00
00007C00
00007C00
00007C00
00007C00
00007C00
00007C00
00007C00
00007C00
00007C00
00007C00
00007C00
00007C00
00007C00
00007C00
00007C00
00003C00
3FFF1800
7FFF8000
FFFFC000
FFFFC000
7FFF8000
3FFF0000
ENDCHAR
STARTCHAR 00A0
ENCODING 160
SWIDTH 720 0
DWIDTH 64 0
BBX 0 0 0 0
BITMAP
ENDCHAR
STARTCHAR 00A9
ENCODING 169
SWIDTH 506 0
DWIDTH 45 0
BBX 34 39 5 0
BITMAP
01FFFFF000
03FFFFF800
07FFFFFC00
07FFFFFC00
03FFFFF800
31FFFFF300
7800000780
FC000007C0
FC000007C0
FC000007C0
FC000007C0
FC07FF07C0
FC0FFF07C0
FC17FF07C0
FC380007C0
FC380007C0
FC380007C0
FC380007C0
FC380007C0
FC380007C0
FC380007C0
FC380007C0
FC380007C0
FC380007C0
FC380007C0
FC17FF07C0
FC0FFF07C0
FC07FF07C0
FC000007C0
FC000007C0
FC000007C0
FC000007C0
7800000380
31FFFFF100
03FFFFF800
07FFFFFC00
07FFFFFC00
03FFFFF800
01FFFFF000
ENDCHAR
STARTCHAR 00AB
ENCODING 171
SWIDTH 450 0
DWIDTH 40 0
BBX 30 62 5 0
BITMAP
00040010
003C0078
003E00F8
007E00FC
007E01F8
007E01F8
00FC03F8
00FC03F0
01FC03F0
01F807E0
01F807E0
03F00FE0
03F00FC0
07F00FC0
07E01F80
07E01F80
0FC03F80
0FC03F00
1FC03F00
1F807E00
1F807E00
3F00FE00
3F00FC00
7F00FC00
7E01F800
7E01F800
FC01F800
7C01F000
7800F000
20008000
00000000
00000000
20008000
7800F000
7C01F000
FC01F800
7E01F800
7E01F800
7F00FC00
3F00FC00
3F00FE00
1F807E00
1F807E00
1FC03F00
0FC03F00
0FC03F80
07E01F80
07E01F80
07E00FC0
03F00FC0
03F00FE0
01F807E0
01F807E0
01F803F0
00FC03F0
00FC03F8
007E01F8
007E01F8
007E00FC
003E00F8
003C0078
00040010
ENDCHAR
STARTCHAR 00AD
ENCODING 173
SWIDTH 0 0
DWIDTH 0 0
BBX 0 0 0 0
BITMAP
ENDCHAR
STARTCHAR 00BB
ENCODING 187
SWIDTH 450 0
DWIDTH 40 0
BBX 30 62 5 0
BITMAP
20008000
7800F000
7C01F000
FC01F800
7E01F800
7E01F800
7F00FC00
3F00FC00
3F00FE00
1F807E00
1F807E00
1FC03F00
0FC03F00
0FC03F80
07E01F80
07E01F80
07F00FC0
03F00FC0
03F00FE0
01F807E0
01F807E0
01FC03F0
00FC03F0
00FC03F8
007E01F8
007E01F8
007E00FC
003E00F8
003C0078
00040010
00000000
00000000
00040010
003C0078
003E00F8
007E00FC
007E01F8
007E01F8
00FC03F8
00FC03F0
01FC03F0
01F807E0
01F807E0
03F00FE0
03F00FC0
07F00FC0
07E01F80
07E01F80
0FC03F80
0FC03F00
1FC03F00
1F807E00
1F807E00
3F00FE00
3F00FC00
7F00FC00
7E01F800
7E01F800
FC01F800
7C01F000
7800F000
20008000
ENDCHAR
STARTCHAR 00C0
ENCODING 192
SWIDTH 506 0
DWIDTH 45 0
BBX 34 62 5 0
BITMAP
01FFFFF000
03FFFFF800
07FFFFFC00
07FFFFFC00
03FFFFF900
31FFFFF380
78000007C0
FC000007C0
FC000007C0
FC000007C0
FC000007C0
FC000007C0
FC000007C0
FC000007C0
FC000007C0
FC000007C0
FC000007C0
FC000007C0
FC000007C0
FC000007C0
FC000007C0
FC000007C0
FC000007C0
FC000007C0
FC000007C0
FC000007C0
FC000007C0
78000007C0
31FFFFF380
03FFFFF900
07FFFFFC00
07FFFFFC00
03FFFFF800
31FFFFF100
7800000380
FC000007C0
FC000007C0
FC000007C0
FC000007C0
FC000007C0
FC000007C0
FC000007C0
FC000007C0
FC000007C0
FC000007C0
FC000007C0
FC000007C0
FC000007C0
FC000007C0
FC000007C0
FC000007C0
FC000007C0
FC000007C0
FC000007C0
FC000007C0
FC000007C0
FC000007C0
FC000007C0
FC000007C0
7C000007C0
3800000380
1000000100
ENDCHAR
STARTCHAR 00C1
ENCODING 193
SWIDTH 506 0
DWIDTH 45 0
BBX 34 77 5 0
BITMAP
000003C000
000007C000
00000FC000
00001FC000
00003FC000
00007F8000
0000FF0000
0001FE0000
0001FC0000
0001F80000
0001F00000
0001E00000
0000000000
0000000000
0000000000
01FFFFF000
03FFFFF800
07FFFFFC00
07FFFFFC00
03FFFFF900
31FFFFF380
78000007C0
FC000007C0
FC000007C0
FC000007C0
FC000007C0
FC000007C0
FC000007C0
FC000007C0
FC000007C0
FC000007C0
FC000007C0
FC000007C0
FC000007C0
FC000007C0
FC000007C0
FC000007C0
FC000007C0
FC000007C0
FC000007C0
FC000007C0
FC000007C0
78000007C0
31FFFFF380
03FFFFF900
07FFFFFC00
07FFFFFC00
03FFFFF800
31FFFFF100
7800000380
FC000007C0
FC000007C0
FC000007C0
FC000007C0
FC000007C0
FC000007C0
FC000007C0
FC000007C0
FC000007C0
FC000007C0
FC000007C0
FC000007C0
FC000007C0
FC000007C0
FC000007C0
FC000007C0
FC000007C0
FC000007C0
FC000007C0
FC000007C0
FC000007C0
FC000007C0
FC000007C0
FC000007C0
7C000007C0
3800000380
1000000100
ENDCHAR
STARTCHAR 00C2
ENCODING 194
SWIDTH 506 0
DWIDTH 45 0
BBX 34 62 5 0
BITMAP
01FFFFF000
03FFFFF800
07FFFFFC00
07FFFFFC00
03FFFFF900
31FFFFF380
78000007C0
FC000007C0
FC000007C0
FC000007C0
FC000007C0
FC000007C0
FC000007C0
FC000007C0
FC000007C0
FC000007C0
FC000007C0
FC000007C0
FC000007C0
FC000007C0
FC000007C0
FC000007C0
FC000007C0
FC000007C0
FC000007C0
FC000007C0
FC000007C0
78000007C0
31FFFFF380
03FFFFF900
07FFFFFC00
07FFFFFC00
03FFFFF800
31FFFFF100
7800000380
FC000007C0
FC000007C0
FC000007C0
FC000007C0
FC000007C0
FC000007C0
FC000007C0
FC000007C0
FC000007C0
FC000007C0
FC000007C0
FC000007C0
FC000007C0
FC000007C0
FC000007C0
FC000007C0
FC000007C0
FC000007C0
FC000007C0
FC000007C0
FC000007C0
FC000007C0
FC000007C0
FC000007C0
7C000007C0
3800000380
1000000100
ENDCHAR
STARTCHAR 00C3
ENCODING 195
SWIDTH 506 0
DWIDTH 45 0
BBX 34 62 5 0
BITMAP
01FFFFF000
03FFFFF800
07FFFFFC00
07FFFFFC00
03FFFFF900
31FFFFF380
78000007C0
FC000007C0
FC000007C0
FC000007C0
FC000007C0
FC000007C0
FC000007C0
FC000007C0
FC000007C0
FC000007C0
FC000007C0
FC000007C0
FC000007C0
FC000007C0
FC000007C0
FC000007C0
FC000007C0
FC000007C0
FC000007C0
FC000007C0
FC000007C0
78000007C0
31FFFFF380
03FFFFF900
07FFFFFC00
07FFFFFC00
03FFFFF800
31FFFFF100
7800000380
FC000007C0
FC000007C0
FC000007C0
FC000007C0
FC000007C0
FC000007C0
FC000007C0
FC000007C0
FC000007C0
FC000007C0
FC000007C0
FC000007C0
FC000007C0
FC000007C0
FC000007C0
FC000007C0
FC000007C0
FC000007C0
FC000007C0
FC000007C0
FC000007C0
FC000007C0
FC000007C0
FC000007C0
7C000007C0
3800000380
1000000100
ENDCHAR
STARTCHAR 00C4
ENCODING 196
SWIDTH 506 0
DWIDTH 45 0
BBX 34 74 5 0
BITMAP
0020008000
007001C000
00F803E000
01F803E000
01F803E000
01F803E000
00F803E000
007001C000
0020008000
0000000000
0000000000
0000000000
01FFFFF000
03FFFFF800
07FFFFFC00
07FFFFFC00
03FFFFF900
31FFFFF380
78000007C0
FC000007C0
FC000007C0
FC000007C0
FC000007C0
FC000007C0
FC000007C0
FC000007C0
FC000007C0
FC000007C0
FC000007C0
FC000007C0
FC000007C0
FC000007C0
FC000007C0
FC000007C0
FC000007C0
FC000007C0
FC000007C0
FC000007C0
FC000007C0
78000007C0
31FFFFF380
03FFFFF900
07FFFFFC00
07FFFFFC00
03FFFFF800
31FFFFF100
7800000380
FC000007C0
FC000007C0
FC000007C0
FC000007C0
FC000007C0
FC000007C0
FC000007C0
FC000007C0
FC000007C0
FC000007C0
FC000007C0
FC000007C0
FC000007C0
FC000007C0
FC000007C0
FC000007C0
FC000007C0
FC000007C0
FC000007C0
FC000007C0
FC000007C0
FC000007C0
FC000007C0
FC000007C0
7C000007C0
3800000380
1000000100
ENDCHAR
STARTCHAR 00C7
ENCODING 199
SWIDTH 450 0
DWIDTH 40 0
BBX 30 73 5 -12
BITMAP
01FFFFF0
03FFFFF8
07FFFFFC
07FFFFFC
03FFFFF8
31FFFFF0
78000000
FC000000
FC000000
FC000000
FC000000
FC000000
FC000000
FC000000
FC000000
FC000000
FC000000
FC000000
FC000000
FC000000
FC000000
FC000000
FC000000
FC000000
FC000000
FC000000
FC000000
78000000
30000000
00000000
00000000
00000000
00000000
30000000
78000000
FC000000
FC000000
FC000000
FC000000
FC000000
FC000000
FC000000
FC000000
FC000000
FC000000
FC000000
FC000000
FC000000
FC000000
FC000000
FC000000
FC000000
FC000000
FC000000
FC000000
78000000
31FFFFF0
03FFFFF8
07FFFFFC
07FFFFFC
03FFFFF8
01FFFFF0
00000000
00000000
00000000
00030000
00078000
000FC000
000FC000
000FC000
000FC000
00078000
00030000
ENDCHAR
STARTCHAR 00C8
ENCODING 200
SWIDTH 450 0
DWIDTH 40 0
BBX 30 62 5 0
BITMAP
01FFFFF0
03FFFFF8
07FFFFFC
07FFFFFC
03FFFFF8
31FFFFF0
78000000
FC000000
FC000000
FC000000
FC000000
FC000000
FC000000
FC000000
FC000000
FC000000
FC000000
FC000000
FC000000
FC000000
FC000000
FC000000
FC000000
FC000000
FC000000
FC000000
FC000000
78000000
31FFFFF0
03FFFFF8
07FFFFFC
07FFFFFC
03FFFFF8
31FFFFF0
78000000
FC000000
FC000000
FC000000
FC000000
FC000000
FC000000
FC000000
FC000000
FC000000
FC000000
FC000000
FC000000
FC000000
FC000000
FC000000
FC000000
FC000000
FC000000
FC000000
FC000000
78000000
31FFFFF0
03FFFFF8
07FFFFFC
07FFFFFC
03FFFFF8
01FFFFF0
ENDCHAR
STARTCHAR 00C9
ENCODING 201
SWIDTH 450 0
DWIDTH 40 0
BBX 30 77 5 0
BITMAP
00000F00
00001F00
00003F00
00007F00
0000FF00
0001FE00
0003FC00
0007F800
0007F000
0007E000
0007C000
00078000
00000000
00000000
00000000
01FFFFF0
03FFFFF8
07FFFFFC
07FFFFFC
03FFFFF8
31FFFFF0
78000000
FC000000
FC000000
FC000000
FC000000
FC000000
FC000000
FC000000
FC000000
FC000000
FC000000
FC000000
FC000000
FC000000
FC000000
FC000000
FC000000
FC000000
FC000000
FC000000
FC000000
78000000
31FFFFF0
03FFFFF8
07FFFFFC
07FFFFFC
03FFFFF8
31FFFFF0
78000000
FC000000
FC000000
FC000000
FC000000
FC000000
FC000000
FC000000
FC000000
FC000000
FC000000
FC000000
FC000000
FC000000
FC000000
FC000000
FC000000
FC000000
FC000000
FC000000
FC000000
78000000
31FFFFF0
03FFFFF8
07FFFFFC
07FFFFFC
03FFFFF8
01FFFFF0
ENDCHAR
STARTCHAR 00CB
ENCODING 203
SWIDTH 450 0
DWIDTH 40 0
BBX 30 74 5 0
BITMAP
00800200
01C00700
03E00F80
07E01F80
07E01F80
07E01F80
03E00F80
01C00700
00800200
00000000
00000000
00000000
01FFFFF0
03FFFFF8
07FFFFFC
07FFFFFC
03FFFFF8
31FFFFF0
78000000
FC000000
FC000000
FC000000
FC000000
FC000000
FC000000
FC000000
FC000000
FC000000
FC000000
FC000000
FC000000
FC000000
FC000000
FC000000
FC000000
FC000000
FC000000
FC000000
FC000000
78000000
31FFFFF0
03FFFFF8
07FFFFFC
07FFFFFC
03FFFFF8
31FFFFF0
78000000
FC000000
FC000000
FC000000
FC000000
FC000000
FC000000
FC000000
FC000000
FC000000
FC000000
FC000000
FC000000
FC000000
FC000000
FC000000
FC000000
FC000000
FC000000
FC000000
FC000000
78000000
31FFFFF0
03FFFFF8
07FFFFFC
07FFFFFC
03FFFFF8
01FFFFF0
ENDCHAR
STARTCHAR 00CC
ENCODING 204
SWIDTH 180 0
DWIDTH 16 0
BBX 6 62 5 0
BITMAP
10
38
7C
FC
FC
FC
FC
FC
FC
FC
FC
FC
FC
FC
FC
FC
FC
FC
FC
FC
FC
FC
FC
FC
FC
FC
FC
78
30
00
00
00
00
30
78
FC
FC
FC
FC
FC
FC
FC
FC
FC
FC
FC
FC
FC
FC
FC
FC
FC
FC
FC
FC
FC
FC
FC
FC
7C
38
10
ENDCHAR
STARTCHAR 00CD
ENCODING 205
SWIDTH 180 0
DWIDTH 16 0
BBX 6 62 5 0
BITMAP
10
38
7C
FC
FC
FC
FC
FC
FC
FC
FC
FC
FC
FC
FC
FC
FC
FC
FC
FC
FC
FC
FC
FC
FC
FC
FC
78
30
00
00
00
00
30
78
FC
FC
FC
FC
FC
FC
FC
FC
FC
FC
FC
FC
FC
FC
FC
FC
FC
FC
FC
FC
FC
FC
FC
FC
7C
38
10
ENDCHAR
STARTCHAR 00CE
ENCODING 206
SWIDTH 180 0
DWIDTH 16 0
BBX 6 62 5 0
BITMAP
10
38
7C
FC
FC
FC
FC
FC
FC
FC
FC
FC
FC
FC
FC
FC
FC
FC
FC
FC
FC
FC
FC
FC
FC
FC
FC
78
30
00
00
00
00
30
78
FC
FC
FC
FC
FC
FC
FC
FC
FC
FC
FC
FC
FC
FC
FC
FC
FC
FC
FC
FC
FC
FC
FC
FC
7C
38
10
ENDCHAR
STARTCHAR 00D2
ENCODING 210
SWIDTH 506 0
DWIDTH 45 0
BBX 34 77 5 0
BITMAP
00001E0000
00003E0000
00007E0000
0000FE0000
0001FE0000
0003FC0000
0007F80000
000FF00000
001FE00000
001FC00000
001F800000
001F000000
0000000000
0000000000
0000000000
01FFFFF000
03FFFFF800
07FFFFFC00
07FFFFFC00
03FFFFF900
31FFFFF380
7800000380
FC000007C0
FC000007C0
FC000007C0
FC000007C0
FC000007C0
FC000007C0
FC000007C0
FC000007C0
FC000007C0
FC000007C0
FC000007C0
FC000007C0
FC000007C0
FC000007C0
FC000007C0
FC000007C0
FC000007C0
FC000007C0
FC000007C0
FC000007C0
78000007C0
3000000380
0000000100
0000000000
0000000000
0000000100
3000000380
78000007C0
FC000007C0
FC000007C0
FC000007C0
FC000007C0
FC000007C0
FC000007C0
FC000007C0
FC000007C0
FC000007C0
FC000007C0
FC000007C0
FC000007C0
FC000007C0
FC000007C0
FC000007C0
FC000007C0
FC000007C0
FC000007C0
FC000007C0
FC000007C0
7800000380
31FFFFF100
03FFFFF800
07FFFFFC00
07FFFFFC00
03FFFFF800
01FFFFF000
ENDCHAR
STARTCHAR 00D3
ENCODING 211
SWIDTH 506 0
DWIDTH 45 0
BBX 34 62 5 0
BITMAP
01FFFFF000
03FFFFF800
07FFFFFC00
07FFFFFC00
03FFFFF900
31FFFFF380
7800000380
FC000007C0
FC000007C0
FC000007C0
FC000007C0
FC000007C0
FC000007C0
FC000007C0
FC000007C0
FC000007C0
FC000007C0
FC000007C0
FC000007C0
FC000007C0
FC000007C0
FC000007C0
FC000007C0
FC000007C0
FC000007C0
FC000007C0
FC000007C0
78000007C0
3000000380
0000000100
0000000000
0000000000
0000000100
3000000380
78000007C0
FC000007C0
FC000007C0
FC000007C0
FC000007C0
FC000007C0
FC000007C0
FC000007C0
FC000007C0
FC000007C0
FC000007C0
FC000007C0
FC000007C0
FC000007C0
FC000007C0
FC000007C0
FC000007C0
FC000007C0
FC000007C0
FC000007C0
FC000007C0
7800000380
31FFFFF100
03FFFFF800
07FFFFFC00
07FFFFFC00
03FFFFF800
01FFFFF000
ENDCHAR
STARTCHAR 00D4
ENCODING 212
SWIDTH 506 0
DWIDTH 45 0
BBX 34 62 5 0
BITMAP
01FFFFF000
03FFFFF800
07FFFFFC00
07FFFFFC00
03FFFFF900
31FFFFF380
7800000380
FC000007C0
FC000007C0
FC000007C0
FC000007C0
FC000007C0
FC000007C0
FC000007C0
FC000007C0
FC000007C0
FC000007C0
FC000007C0
FC000007C0
FC000007C0
FC000007C0
FC000007C0
FC000007C0
FC000007C0
FC000007C0
FC000007C0
FC000007C0
78000007C0
3000000380
0000000100
0000000000
0000000000
0000000100
3000000380
78000007C0
FC000007C0
FC000007C0
FC000007C0
FC000007C0
FC000007C0
FC000007C0
FC000007C0
FC000007C0
FC000007C0
FC000007C0
FC000007C0
FC000007C0
FC000007C0
FC000007C0
FC000007C0
FC000007C0
FC000007C0
FC000007C0
FC000007C0
FC000007C0
7800000380
31FFFFF100
03FFFFF800
07FFFFFC00
07FFFFFC00
03FFFFF800
01FFFFF000
ENDCHAR
STARTCHAR 00D5
ENCODING 213
SWIDTH 506 0
DWIDTH 45 0
BBX 34 62 5 0
BITMAP
01FFFFF000
03FFFFF800
07FFFFFC00
07FFFFFC00
03FFFFF900
31FFFFF380
7800000380
FC000007C0
FC000007C0
FC000007C0
FC000007C0
FC000007C0
FC000007C0
FC000007C0
FC000007C0
FC000007C0
FC000007C0
FC000007C0
FC000007C0
FC000007C0
FC000007C0
FC000007C0
FC000007C0
FC000007C0
FC000007C0
FC000007C0
FC000007C0
78000007C0
3000000380
0000000100
0000000000
0000000000
0000000100
3000000380
78000007C0
FC000007C0
FC000007C0
FC000007C0
FC000007C0
FC000007C0
FC000007C0
FC000007C0
FC000007C0
FC000007C0
FC000007C0
FC000007C0
FC000007C0
FC000007C0
FC000007C0
FC000007C0
FC000007C0
FC000007C0
FC000007C0
FC000007C0
FC000007C0
7800000380
31FFFFF100
03FFFFF800
07FFFFFC00
07FFFFFC00
03FFFFF800
01FFFFF000
ENDCHAR
STARTCHAR 00D6
ENCODING 214
SWIDTH 506 0
DWIDTH 45 0
BBX 34 74 5 0
BITMAP
0020008000
007001C000
00F803E000
01F803E000
01F803E000
01F803E000
00F803E000
007001C000
0020008000
0000000000
0000000000
0000000000
01FFFFF000
03FFFFF800
07FFFFFC00
07FFFFFC00
03FFFFF900
31FFFFF380
7800000380
FC000007C0
FC000007C0
FC000007C0
FC000007C0
FC000007C0
FC000007C0
FC000007C0
FC000007C0
FC000007C0
FC000007C0
FC000007C0
FC000007C0
FC000007C0
FC000007C0
FC000007C0
FC000007C0
FC000007C0
FC000007C0
FC000007C0
FC000007C0
78000007C0
3000000380
0000000100
0000000000
0000000000
0000000100
3000000380
78000007C0
FC000007C0
FC000007C0
FC000007C0
FC000007C0
FC000007C0
FC000007C0
FC000007C0
FC000007C0
FC000007C0
FC000007C0
FC000007C0
FC000007C0
FC000007C0
FC000007C0
FC000007C0
FC000007C0
FC000007C0
FC000007C0
FC000007C0
FC000007C0
7800000380
31FFFFF100
03FFFFF800
07FFFFFC00
07FFFFFC00
03FFFFF800
01FFFFF000
ENDCHAR
STARTCHAR 00D9
ENCODING 217
SWIDTH 506 0
DWIDTH 45 0
BBX 34 77 5 0
BITMAP
00001E0000
00003E0000
00007E0000
0000FE0000
0001FE0000
0003FC0000
0007F80000
000FF00000
001FE00000
001FC00000
001F800000
001F000000
0000000000
0000000000
0000000000
1000000100
3800000380
7C000007C0
FC000007C0
FC000007C0
FC000007C0
FC000007C0
FC000007C0
FC000007C0
FC000007C0
FC000007C0
FC000007C0
FC000007C0
FC000007C0
FC000007C0
FC000007C0
FC000007C0
FC000007C0
FC000007C0
FC000007C0
FC000007C0
FC000007C0
FC000007C0
FC000007C0
FC000007C0
FC000007C0
FC000007C0
7800000380
3000000100
0000000000
0000000000
0000000000
0000000100
3000000380
7C000007C0
FC000007C0
FC000007C0
FC000007C0
FC000007C0
FC000007C0
FC000007C0
FC000007C0
FC000007C0
FC000007C0
FC000007C0
FC000007C0
FC000007C0
FC000007C0
FC000007C0
FC000007C0
FC000007C0
FC000007C0
FC000007C0
FC000007C0
FC000007C0
7800000380
31FFFFF100
03FFFFF800
07FFFFFC00
07FFFFFC00
03FFFFF800
01FFFFF000
ENDCHAR
STARTCHAR 00DA
ENCODING 218
SWIDTH 506 0
DWIDTH 45 0
BBX 34 62 5 0
BITMAP
1000000100
3800000380
7C000007C0
FC000007C0
FC000007C0
FC000007C0
FC000007C0
FC000007C0
FC000007C0
FC000007C0
FC000007C0
FC000007C0
FC000007C0
FC000007C0
FC000007C0
FC000007C0
FC000007C0
FC000007C0
FC000007C0
FC000007C0
FC000007C0
FC000007C0
FC000007C0
FC000007C0
FC000007C0
FC000007C0
FC000007C0
7800000380
3000000100
0000000000
0000000000
0000000000
0000000100
3000000380
7C000007C0
FC000007C0
FC000007C0
FC000007C0
FC000007C0
FC000007C0
FC000007C0
FC000007C0
FC000007C0
FC000007C0
FC000007C0
FC000007C0
FC000007C0
FC000007C0
FC000007C0
FC000007C0
FC000007C0
FC000007C0
FC000007C0
FC000007C0
FC000007C0
7800000380
31FFFFF100
03FFFFF800
07FFFFFC00
07FFFFFC00
03FFFFF800
01FFFFF000
ENDCHAR
STARTCHAR 00DC
ENCODING 220
SWIDTH 506 0
DWIDTH 45 0
BBX 34 74 5 0
BITMAP
0020008000
007001C000
00F803E000
01F803E000
01F803E000
01F803E000
00F803E000
007001C000
0020008000
0000000000
0000000000
0000000000
1000000100
3800000380
7C000007C0
FC000007C0
FC000007C0
FC000007C0
FC000007C0
FC000007C0
FC000007C0
FC000007C0
FC000007C0
FC000007C0
FC000007C0
FC000007C0
FC000007C0
FC000007C0
FC000007C0
FC000007C0
FC000007C0
FC000007C0
FC000007C0
FC000007C0
FC000007C0
FC000007C0
FC000007C0
FC000007C0
FC000007C0
7800000380
3000000100
0000000000
0000000000
0000000000
0000000100
3000000380
7C000007C0
FC000007C0
FC000007C0
FC000007C0
FC000007C0
FC000007C0
FC000007C0
FC000007C0
FC000007C0
FC000007C0
FC000007C0
FC000007C0
FC000007C0
FC000007C0
FC000007C0
FC000007C0
FC000007C0
FC000007C0
FC000007C0
FC000007C0
FC000007C0
7800000380
31FFFFF100
03FFFFF800
07FFFFFC00
07FFFFFC00
03FFFFF800
01FFFFF000
ENDCHAR
STARTCHAR 00DF
ENCODING 223
SWIDTH 450 0
DWIDTH 40 0
BBX 29 62 6 0
BITMAP
3FFFFC00
7FFFFE00
FFFFFF00
FFFFFF00
7FFFFE00
3FFFFC60
000000F0
000001F8
006001F8
00F001F8
01F801F8
01F801F8
01F801F8
01F801F8
01F801F8
01F801F8
01F801F8
01F801F8
01F801F8
01F801F8
01F801F8
01F801F8
01F801F8
01F801F8
00F001F8
006001F8
000001F8
000000F0
3FFFFC60
7FFFFE00
FFFFFF00
FFFFFF00
7FFFFE00
3FFFFC60
000000F0
000001F8
004001F8
00F001F8
01F801F8
01F801F8
01F801F8
01F801F8
01F801F8
01F801F8
01F801F8
01F801F8
01F801F8
01F801F8
01F801F8
01F801F8
01F801F8
01F801F8
00F001F8
004001F8
000001F8
000000F0
3FFFFC60
7FFFFE00
FFFFFF00
FFFFFF00
7FFFFE00
3FFFFC00
ENDCHAR
STARTCHAR 00E0
ENCODING 224
SWIDTH 506 0
DWIDTH 45 0
BBX 34 62 5 0
BITMAP
01FFFFF000
03FFFFF800
07FFFFFC00
07FFFFFC00
03FFFFF900
31FFFFF380
78000007C0
FC000007C0
FC000007C0
FC000007C0
FC000007C0
FC000007C0
FC000007C0
FC000007C0
FC000007C0
FC000007C0
FC000007C0
FC000007C0
FC000007C0
FC000007C0
FC000007C0
FC000007C0
FC000007C0
FC000007C0
FC000007C0
FC000007C0
FC000007C0
78000007C0
31FFFFF380
03FFFFF900
07FFFFFC00
07FFFFFC00
03FFFFF800
31FFFFF100
7800000380
FC000007C0
FC000007C0
FC000007C0
FC000007C0
FC000007C0
FC000007C0
FC000007C0
FC000007C0
FC000007C0
FC000007C0
FC000007C0
FC000007C0
FC000007C0
FC000007C0
FC000007C0
FC000007C0
FC000007C0
FC000007C0
FC000007C0
FC000007C0
FC000007C0
FC000007C0
FC000007C0
FC000007C0
7C000007C0
3800000380
1000000100
ENDCHAR
STARTCHAR 00E1
ENCODING 225
SWIDTH 506 0
DWIDTH 45 0
BBX 34 62 5 0
BITMAP
01FFFFF000
03FFFFF800
07FFFFFC00
07FFFFFC00
03FFFFF900
31FFFFF380
78000007C0
FC000007C0
FC000007C0
FC000007C0
FC000007C0
FC000007C0
FC000007C0
FC000007C0
FC000007C0
FC000007C0
FC000007C0
FC000007C0
FC000007C0
FC000007C0
FC000007C0
FC000007C0
FC000007C0
FC000007C0
FC000007C0
FC000007C0
FC000007C0
78000007C0
31FFFFF380
03FFFFF900
07FFFFFC00
07FFFFFC00
03FFFFF800
31FFFFF100
7800000380
FC000007C0
FC000007C0
FC000007C0
FC000007C0
FC000007C0
FC000007C0
FC000007C0
FC000007C0
FC000007C0
FC000007C0
FC000007C0
FC000007C0
FC000007C0
FC000007C0
FC000007C0
FC000007C0
FC000007C0
FC000007C0
FC000007C0
FC000007C0
FC000007C0
FC000007C0
FC000007C0
FC000007C0
7C000007C0
3800000380
1000000100
ENDCHAR
STARTCHAR 00E2
ENCODING 226
SWIDTH 506 0
DWIDTH 45 0
BBX 34 62 5 0
BITMAP
01FFFFF000
03FFFFF800
07FFFFFC00
07FFFFFC00
03FFFFF900
31FFFFF380
78000007C0
FC000007C0
FC000007C0
FC000007C0
FC000007C0
FC000007C0
FC000007C0
FC000007C0
FC000007C0
FC000007C0
FC000007C0
FC000007C0
FC000007C0
FC000007C0
FC000007C0
FC000007C0
FC000007C0
FC000007C0
FC000007C0
FC000007C0
FC000007C0
78000007C0
31FFFFF380
03FFFFF900
07FFFFFC00
07FFFFFC00
03FFFFF800
31FFFFF100
7800000380
FC000007C0
FC000007C0
FC000007C0
FC000007C0
FC000007C0
FC000007C0
FC000007C0
FC000007C0
FC000007C0
FC000007C0
FC000007C0
FC000007C0
FC000007C0
FC000007C0
FC000007C0
FC000007C0
FC000007C0
FC000007C0
FC000007C0
FC000007C0
FC000007C0
FC000007C0
FC000007C0
FC000007C0
7C000007C0
3800000380
1000000100
ENDCHAR
STARTCHAR 00E3
ENCODING 227
SWIDTH 506 0
DWIDTH 45 0
BBX 34 62 5 0
BITMAP
01FFFFF000
03FFFFF800
07FFFFFC00
07FFFFFC00
03FFFFF900
31FFFFF380
78000007C0
FC000007C0
FC000007C0
FC000007C0
FC000007C0
FC000007C0
FC000007C0
FC000007C0
FC000007C0
FC000007C0
FC000007C0
FC000007C0
FC000007C0
FC000007C0
FC000007C0
FC000007C0
FC000007C0
FC000007C0
FC000007C0
FC000007C0
FC000007C0
78000007C0
31FFFFF380
03FFFFF900
07FFFFFC00
07FFFFFC00
03FFFFF800
31FFFFF100
7800000380
FC000007C0
FC000007C0
FC000007C0
FC000007C0
FC000007C0
FC000007C0
FC000007C0
FC000007C0
FC000007C0
FC000007C0
FC000007C0
FC000007C0
FC000007C0
FC000007C0
FC000007C0
FC000007C0
FC000007C0
FC000007C0
FC000007C0
FC000007C0
FC000007C0
FC000007C0
FC000007C0
FC000007C0
7C000007C0
3800000380
1000000100
ENDCHAR
STARTCHAR 00E4
ENCODING 228
SWIDTH 506 0
DWIDTH 45 0
BBX 34 62 5 0
BITMAP
01FFFFF000
03FFFFF800
07FFFFFC00
07FFFFFC00
03FFFFF900
31FFFFF380
78000007C0
FC000007C0
FC000007C0
FC000007C0
FC000007C0
FC000007C0
FC000007C0
FC000007C0
FC000007C0
FC000007C0
FC000007C0
FC000007C0
FC000007C0
FC000007C0
FC000007C0
FC000007C0
FC000007C0
FC000007C0
FC000007C0
FC000007C0
FC000007C0
78000007C0
31FFFFF380
03FFFFF900
07FFFFFC00
07FFFFFC00
03FFFFF800
31FFFFF100
7800000380
FC000007C0
FC000007C0
FC000007C0
FC000007C0
FC000007C0
FC000007C0
FC000007C0
FC000007C0
FC000007C0
FC000007C0
FC000007C0
FC000007C0
FC000007C0
FC000007C0
FC000007C0
FC000007C0
FC000007C0
FC000007C0
FC000007C0
FC000007C0
FC000007C0
FC000007C0
FC000007C0
FC000007C0
7C000007C0
3800000380
1000000100
ENDCHAR
STARTCHAR 00E7
ENCODING 231
SWIDTH 450 0
DWIDTH 40 0
BBX 30 73 5 -12
BITMAP
01FFFFF0
03FFFFF8
07FFFFFC
07FFFFFC
03FFFFF8
31FFFFF0
78000000
FC000000
FC000000
FC000000
FC000000
FC000000
FC000000
FC000000
FC000000
FC000000
FC000000
FC000000
FC000000
FC000000
FC000000
FC000000
FC000000
FC000000
FC000000
FC000000
FC000000
78000000
30000000
00000000
00000000
00000000
00000000
30000000
78000000
FC000000
FC000000
FC000000
FC000000
FC000000
FC000000
FC000000
FC000000
FC000000
FC000000
FC000000
FC000000
FC000000
FC000000
FC000000
FC000000
FC000000
FC000000
FC000000
FC000000
78000000
31FFFFF0
03FFFFF8
07FFFFFC
07FFFFFC
03FFFFF8
01FFFFF0
00000000
00000000
00000000
00030000
00078000
000FC000
000FC000
000FC000
000FC000
00078000
00030000
ENDCHAR
STARTCHAR 00E8
ENCODING 232
SWIDTH 450 0
DWIDTH 40 0
BBX 30 62 5 0
BITMAP
01FFFFF0
03FFFFF8
07FFFFFC
07FFFFFC
03FFFFF8
31FFFFF0
78000000
FC000000
FC000000
FC000000
FC000000
FC000000
FC000000
FC000000
FC000000
FC000000
FC000000
FC000000
FC000000
FC000000
FC000000
FC000000
FC000000
FC000000
FC000000
FC000000
FC000000
78000000
31FFFFF0
03FFFFF8
07FFFFFC
07FFFFFC
03FFFFF8
31FFFFF0
78000000
FC000000
FC000000
FC000000
FC000000
FC000000
FC000000
FC000000
FC000000
FC000000
FC000000
FC000000
FC000000
FC000000
FC000000
FC000000
FC000000
FC000000
FC000000
FC000000
FC000000
78000000
31FFFFF0
03FFFFF8
07FFFFFC
07FFFFFC
03FFFFF8
01FFFFF0
ENDCHAR
STARTCHAR 00E9
ENCODING 233
SWIDTH 450 0
DWIDTH 40 0
BBX 30 62 5 0
BITMAP
01FFFFF0
03FFFFF8
07FFFFFC
07FFFFFC
03FFFFF8
31FFFFF0
78000000
FC000000
FC000000
FC000000
FC000000
FC000000
FC000000
FC000000
FC000000
FC000000
FC000000
FC000000
FC000000
FC000000
FC000000
FC000000
FC000000
FC000000
FC000000
FC000000
FC000000
78000000
31FFFFF0
03FFFFF8
07FFFFFC
07FFFFFC
03FFFFF8
31FFFFF0
78000000
FC000000
FC000000
FC000000
FC000000
FC000000
FC000000
FC000000
FC000000
FC000000
FC000000
FC000000
FC000000
FC000000
FC000000
FC000000
FC000000
FC000000
FC000000
FC000000
FC000000
78000000
31FFFFF0
03FFFFF8
07FFFFFC
07FFFFFC
03FFFFF8
01FFFFF0
ENDCHAR
STARTCHAR 00EA
ENCODING 234
SWIDTH 450 0
DWIDTH 40 0
BBX 30 62 5 0
BITMAP
01FFFFF0
03FFFFF8
07FFFFFC
07FFFFFC
03FFFFF8
31FFFFF0
78000000
FC000000
FC000000
FC000000
FC000000
FC000000
FC000000
FC000000
FC000000
FC000000
FC000000
FC000000
FC000000
FC000000
FC000000
FC000000
FC000000
FC000000
FC000000
FC000000
FC000000
78000000
31FFFFF0
03FFFFF8
07FFFFFC
07FFFFFC
03FFFFF8
31FFFFF0
78000000
FC000000
FC000000
FC000000
FC000000
FC000000
FC000000
FC000000
FC000000
FC000000
FC000000
FC000000
FC000000
FC000000
FC000000
FC000000
FC000000
FC000000
FC000000
FC000000
FC000000
78000000
31FFFFF0
03FFFFF8
07FFFFFC
07FFFFFC
03FFFFF8
01FFFFF0
ENDCHAR
STARTCHAR 00EC
ENCODING 236
SWIDTH 180 0
DWIDTH 16 0
BBX 6 62 5 0
BITMAP
10
38
7C
FC
FC
FC
FC
FC
FC
FC
FC
FC
FC
FC
FC
FC
FC
FC
FC
FC
FC
FC
FC
FC
FC
FC
FC
78
30
00
00
00
00
30
78
FC
FC
FC
FC
FC
FC
FC
FC
FC
FC
FC
FC
FC
FC
FC
FC
FC
FC
FC
FC
FC
FC
FC
FC
7C
38
10
ENDCHAR
STARTCHAR 00ED
ENCODING 237
SWIDTH 180 0
DWIDTH 16 0
BBX 6 62 5 0
BITMAP
10
38
7C
FC
FC
FC
FC
FC
FC
FC
FC
FC
FC
FC
FC
FC
FC
FC
FC
FC
FC
FC
FC
FC
FC
FC
FC
78
30
00
00
00
00
30
78
FC
FC
FC
FC
FC
FC
FC
FC
FC
FC
FC
FC
FC
FC
FC
FC
FC
FC
FC
FC
FC
FC
FC
FC
7C
38
10
ENDCHAR
STARTCHAR 00EE
ENCODING 238
SWIDTH 180 0
DWIDTH 16 0
BBX 6 62 5 0
BITMAP
10
38
7C
FC
FC
FC
FC
FC
FC
FC
FC
FC
FC
FC
FC
FC
FC
FC
FC
FC
FC
FC
FC
FC
FC
FC
FC
78
30
00
00
00
00
30
78
FC
FC
FC
FC
FC
FC
FC
FC
FC
FC
FC
FC
FC
FC
FC
FC
FC
FC
FC
FC
FC
FC
FC
FC
7C
38
10
ENDCHAR
STARTCHAR 00F2
ENCODING 242
SWIDTH 506 0
DWIDTH 45 0
BBX 34 62 5 0
BITMAP
01FFFFF000
03FFFFF800
07FFFFFC00
07FFFFFC00
03FFFFF900
31FFFFF380
7800000380
FC000007C0
FC000007C0
FC000007C0
FC000007C0
FC000007C0
FC000007C0
FC000007C0
FC000007C0
FC000007C0
FC000007C0
FC000007C0
FC000007C0
FC000007C0
FC000007C0
FC000007C0
FC000007C0
FC000007C0
FC000007C0
FC000007C0
FC000007C0
78000007C0
3000000380
0000000100
0000000000
0000000000
0000000100
3000000380
78000007C0
FC000007C0
FC000007C0
FC000007C0
FC000007C0
FC000007C0
FC000007C0
FC000007C0
FC000007C0
FC000007C0
FC000007C0
FC000007C0
FC000007C0
FC000007C0
FC000007C0
FC000007C0
FC000007C0
FC000007C0
FC000007C0
FC000007C0
FC000007C0
7800000380
31FFFFF100
03FFFFF800
07FFFFFC00
07FFFFFC00
03FFFFF800
01FFFFF000
ENDCHAR
STARTCHAR 00F3
ENCODING 243
SWIDTH 506 0
DWIDTH 45 0
BBX 34 62 5 0
BITMAP
01FFFFF000
03FFFFF800
07FFFFFC00
07FFFFFC00
03FFFFF900
31FFFFF380
7800000380
FC000007C0
FC000007C0
FC000007C0
FC000007C0
FC000007C0
FC000007C0
FC000007C0
FC000007C0
FC000007C0
FC000007C0
FC000007C0
FC000007C0
FC000007C0
FC000007C0
FC000007C0
FC000007C0
FC000007C0
FC000007C0
FC000007C0
FC000007C0
78000007C0
3000000380
0000000100
0000000000
0000000000
0000000100
3000000380
78000007C0
FC000007C0
FC000007C0
FC000007C0
FC000007C0
FC000007C0
FC000007C0
FC000007C0
FC000007C0
FC000007C0
FC000007C0
FC000007C0
FC000007C0
FC000007C0
FC000007C0
FC000007C0
FC000007C0
FC000007C0
FC000007C0
FC000007C0
FC000007C0
7800000380
31FFFFF100
03FFFFF800
07FFFFFC00
07FFFFFC00
03FFFFF800
01FFFFF000
ENDCHAR
STARTCHAR 00F4
ENCODING 244
SWIDTH 506 0
DWIDTH 45 0
BBX 34 62 5 0
BITMAP
01FFFFF000
03FFFFF800
07FFFFFC00
07FFFFFC00
03FFFFF900
31FFFFF380
7800000380
FC000007C0
FC000007C0
FC000007C0
FC000007C0
FC000007C0
FC000007C0
FC000007C0
FC000007C0
FC000007C0
FC000007C0
FC000007C0
FC000007C0
FC000007C0
FC000007C0
FC000007C0
FC000007C0
FC000007C0
FC000007C0
FC000007C0
FC000007C0
78000007C0
3000000380
0000000100
0000000000
0000000000
0000000100
3000000380
78000007C0
FC000007C0
FC000007C0
FC000007C0
FC000007C0
FC000007C0
FC000007C0
FC000007C0
FC000007C0
FC000007C0
FC000007C0
FC000007C0
FC000007C0
FC000007C0
FC000007C0
FC000007C0
FC000007C0
FC000007C0
FC000007C0
FC000007C0
FC000007C0
7800000380
31FFFFF100
03FFFFF800
07FFFFFC00
07FFFFFC00
03FFFFF800
01FFFFF000
ENDCHAR
STARTCHAR 00F5
ENCODING 245
SWIDTH 506 0
DWIDTH 45 0
BBX 34 62 5 0
BITMAP
01FFFFF000
03FFFFF800
07FFFFFC00
07FFFFFC00
03FFFFF900
31FFFFF380
7800000380
FC000007C0
FC000007C0
FC000007C0
FC000007C0
FC000007C0
FC000007C0
FC000007C0
FC000007C0
FC000007C0
FC000007C0
FC000007C0
FC000007C0
FC000007C0
FC000007C0
FC000007C0
FC000007C0
FC000007C0
FC000007C0
FC000007C0
FC000007C0
78000007C0
3000000380
0000000100
0000000000
0000000000
0000000100
3000000380
78000007C0
FC000007C0
FC000007C0
FC000007C0
FC000007C0
FC000007C0
FC000007C0
FC000007C0
FC000007C0
FC000007C0
FC000007C0
FC000007C0
FC000007C0
FC000007C0
FC000007C0
FC000007C0
FC000007C0
FC000007C0
FC000007C0
FC000007C0
FC000007C0
7800000380
31FFFFF100
03FFFFF800
07FFFFFC00
07FFFFFC00
03FFFFF800
01FFFFF000
ENDCHAR
STARTCHAR 00F6
ENCODING 246
SWIDTH 506 0
DWIDTH 45 0
BBX 34 74 5 0
BITMAP
0020008000
007001C000
00F803E000
01F803E000
01F803E000
01F803E000
00F803E000
007001C000
0020008000
0000000000
0000000000
0000000000
01FFFFF000
03FFFFF800
07FFFFFC00
07FFFFFC00
03FFFFF900
31FFFFF380
7800000380
FC000007C0
FC000007C0
FC000007C0
FC000007C0
FC000007C0
FC000007C0
FC000007C0
FC000007C0
FC000007C0
FC000007C0
FC000007C0
FC000007C0
FC000007C0
FC000007C0
FC000007C0
FC000007C0
FC000007C0
FC000007C0
FC000007C0
FC000007C0
78000007C0
3000000380
0000000100
0000000000
0000000000
0000000100
3000000380
78000007C0
FC000007C0
FC000007C0
FC000007C0
FC000007C0
FC000007C0
FC000007C0
FC000007C0
FC000007C0
FC000007C0
FC000007C0
FC000007C0
FC000007C0
FC000007C0
FC000007C0
FC000007C0
FC000007C0
FC000007C0
FC000007C0
FC000007C0
FC000007C0
7800000380
31FFFFF100
03FFFFF800
07FFFFFC00
07FFFFFC00
03FFFFF800
01FFFFF000
ENDCHAR
STARTCHAR 00F7
ENCODING 247
SWIDTH 551 0
DWIDTH 49 0
BBX 37 35 6 0
BITMAP
0000200000
0000700000
0000F80000
0000F80000
0000F80000
0000F80000
0000F80000
0000700000
0000200000
0000000000
0000000000
0000000000
0000000000
0000000000
0000000000
3FFFFFFFE0
7FFFFFFFF0
FFFFFFFFF8
FFFFFFFFF8
7FFFFFFFF0
3FFFFFFFE0
0000000000
0000000000
0000000000
0000000000
0000000000
0000000000
0000200000
0000700000
0000F80000
0000F80000
0000F80000
0000F80000
0000700000
0000200000
ENDCHAR
STARTCHAR 00F9
ENCODING 249
SWIDTH 506 0
DWIDTH 45 0
BBX 34 62 5 0
BITMAP
1000000100
3800000380
7C000007C0
FC000007C0
FC000007C0
FC000007C0
FC000007C0
FC000007C0
FC000007C0
FC000007C0
FC000007C0
FC000007C0
FC000007C0
FC000007C0
FC000007C0
FC000007C0
FC000007C0
FC000007C0
FC000007C0
FC000007C0
FC000007C0
FC000007C0
FC000007C0
FC000007C0
FC000007C0
FC000007C0
FC000007C0
7800000380
3000000100
0000000000
0000000000
0000000000
0000000100
3000000380
7C000007C0
FC000007C0
FC000007C0
FC000007C0
FC000007C0
FC000007C0
FC000007C0
FC000007C0
FC000007C0
FC000007C0
FC000007C0
FC000007C0
FC000007C0
FC000007C0
FC000007C0
FC000007C0
FC000007C0
FC000007C0
FC000007C0
FC000007C0
FC000007C0
7800000380
31FFFFF100
03FFFFF800
07FFFFFC00
07FFFFFC00
03FFFFF800
01FFFFF000
ENDCHAR
STARTCHAR 00FA
ENCODING 250
SWIDTH 506 0
DWIDTH 45 0
BBX 34 62 5 0
BITMAP
1000000100
3800000380
7C000007C0
FC000007C0
FC000007C0
FC000007C0
FC000007C0
FC000007C0
FC000007C0
FC000007C0
FC000007C0
FC000007C0
FC000007C0
FC000007C0
FC000007C0
FC000007C0
FC000007C0
FC000007C0
FC000007C0
FC000007C0
FC000007C0
FC000007C0
FC000007C0
FC000007C0
FC000007C0
FC000007C0
FC000007C0
7800000380
3000000100
0000000000
0000000000
0000000000
0000000100
3000000380
7C000007C0
FC000007C0
FC000007C0
FC000007C0
FC000007C0
FC000007C0
FC000007C0
FC000007C0
FC000007C0
FC000007C0
FC000007C0
FC000007C0
FC000007C0
FC000007C0
FC000007C0
FC000007C0
FC000007C0
FC000007C0
FC000007C0
FC000007C0
FC000007C0
7800000380
31FFFFF100
03FFFFF800
07FFFFFC00
07FFFFFC00
03FFFFF800
01FFFFF000
ENDCHAR
STARTCHAR 00FC
ENCODING 252
SWIDTH 506 0
DWIDTH 45 0
BBX 34 74 5 0
BITMAP
0020008000
007001C000
00F803E000
01F803E000
01F803E000
01F803E000
00F803E000
007001C000
0020008000
0000000000
0000000000
0000000000
1000000100
3800000380
7C000007C0
FC000007C0
FC000007C0
FC000007C0
FC000007C0
FC000007C0
FC000007C0
FC000007C0
FC000007C0
FC000007C0
FC000007C0
FC000007C0
FC000007C0
FC000007C0
FC000007C0
FC000007C0
FC000007C0
FC000007C0
FC000007C0
FC000007C0
FC000007C0
FC000007C0
FC000007C0
FC000007C0
FC000007C0
7800000380
3000000100
0000000000
0000000000
0000000000
0000000100
3000000380
7C000007C0
FC000007C0
FC000007C0
FC000007C0
FC000007C0
FC000007C0
FC000007C0
FC000007C0
FC000007C0
FC000007C0
FC000007C0
FC000007C0
FC000007C0
FC000007C0
FC000007C0
FC000007C0
FC000007C0
FC000007C0
FC000007C0
FC000007C0
FC000007C0
7800000380
31FFFFF100
03FFFFF800
07FFFFFC00
07FFFFFC00
03FFFFF800
01FFFFF000
ENDCHAR
STARTCHAR 00FD
ENCODING 253
SWIDTH 506 0
DWIDTH 45 0
BBX 34 62 5 0
BITMAP
1000000100
3800000380
7C000007C0
FC000007C0
FC000007C0
FC000007C0
FC000007C0
FC000007C0
FC000007C0
FC000007C0
FC000007C0
FC000007C0
FC000007C0
FC000007C0
FC000007C0
FC000007C0
FC000007C0
FC000007C0
FC000007C0
FC000007C0
FC000007C0
FC000007C0
FC000007C0
FC000007C0
FC000007C0
FC000007C0
FC000007C0
7800000380
31FFFFF100
03FFFFF900
07FFFFFC00
07FFFFFC00
03FFFFF800
01FFFFF100
0000000380
00000007C0
00000007C0
00000007C0
00000007C0
00000007C0
00000007C0
00000007C0
00000007C0
00000007C0
00000007C0
00000007C0
00000007C0
00000007C0
00000007C0
00000007C0
00000007C0
00000007C0
00000007C0
00000007C0
00000007C0
0000000380
01FFFFF100
03FFFFF800
07FFFFFC00
07FFFFFC00
03FFFFF800
01FFFFF000
ENDCHAR
STARTCHAR 2000
ENCODING 8192
SWIDTH 427 0
DWIDTH 38 0
BBX 0 0 0 0
BITMAP
ENDCHAR
STARTCHAR 2001
ENCODING 8193
SWIDTH 866 0
DWIDTH 77 0
BBX 0 0 0 0
BITMAP
ENDCHAR
STARTCHAR 2002
ENCODING 8194
SWIDTH 427 0
DWIDTH 38 0
BBX 0 0 0 0
BITMAP
ENDCHAR
STARTCHAR 2003
ENCODING 8195
SWIDTH 866 0
DWIDTH 77 0
BBX 0 0 0 0
BITMAP
ENDCHAR
STARTCHAR 2004
ENCODING 8196
SWIDTH 292 0
DWIDTH 26 0
BBX 0 0 0 0
BITMAP
ENDCHAR
STARTCHAR 2005
ENCODING 8197
SWIDTH 213 0
DWIDTH 19 0
BBX 0 0 0 0
BITMAP
ENDCHAR
STARTCHAR 2006
ENCODING 8198
SWIDTH 146 0
DWIDTH 13 0
BBX 0 0 0 0
BITMAP
ENDCHAR
STARTCHAR 2007
ENCODING 8199
SWIDTH 146 0
DWIDTH 13 0
BBX 0 0 0 0
BITMAP
ENDCHAR
STARTCHAR 2008
ENCODING 8200
SWIDTH 112 0
DWIDTH 10 0
BBX 0 0 0 0
BITMAP
ENDCHAR
STARTCHAR 2009
ENCODING 8201
SWIDTH 168 0
DWIDTH 15 0
BBX 0 0 0 0
BITMAP
ENDCHAR
STARTCHAR 200A
ENCODING 8202
SWIDTH 45 0
DWIDTH 4 0
BBX 0 0 0 0
BITMAP
ENDCHAR
STARTCHAR 2010
ENCODING 8208
SWIDTH 405 0
DWIDTH 36 0
BBX 24 6 6 28
BITMAP
3FFFFC
7FFFFE
FFFFFF
FFFFFF
7FFFFE
3FFFFC
ENDCHAR
STARTCHAR 2011
ENCODING 8209
SWIDTH 405 0
DWIDTH 36 0
BBX 24 6 6 28
BITMAP
3FFFFC
7FFFFE
FFFFFF
FFFFFF
7FFFFE
3FFFFC
ENDCHAR
STARTCHAR 2012
ENCODING 8210
SWIDTH 405 0
DWIDTH 36 0
BBX 24 6 6 28
BITMAP
3FFFFC
7FFFFE
FFFFFF
FFFFFF
7FFFFE
3FFFFC
ENDCHAR
STARTCHAR 2013
ENCODING 8211
SWIDTH 618 0
DWIDTH 55 0
BBX 43 6 6 28
BITMAP
1FFFFFFFFF00
3FFFFFFFFF80
FFFFFFFFFFE0
FFFFFFFFFFE0
3FFFFFFFFF80
0FFFFFFFFE00
ENDCHAR
STARTCHAR 2014
ENCODING 8212
SWIDTH 1125 0
DWIDTH 100 0
BBX 88 6 6 28
BITMAP
00FFFFFFFFFFFFFFFFFF00
0FFFFFFFFFFFFFFFFFFFF0
7FFFFFFFFFFFFFFFFFFFFE
FFFFFFFFFFFFFFFFFFFFFD
07FFFFFFFFFFFFFFFFFFE0
00FFFFFFFFFFFFFFFFFE00
ENDCHAR
STARTCHAR 2018
ENCODING 8216
SWIDTH 270 0
DWIDTH 24 0
BBX 14 20 5 -11
BITMAP
0018
0078
00F8
01FC
01F8
03F8
03F0
07F0
07E0
0FE0
1FC0
1F80
3F80
3F00
7F00
7E00
FE00
7C00
7C00
6000
ENDCHAR
STARTCHAR 201C
ENCODING 8220
SWIDTH 281 0
DWIDTH 25 0
BBX 15 9 5 53
BITMAP
1010
3838
7C7C
FC7E
FC7E
FC7E
7C7C
3838
1010
ENDCHAR
STARTCHAR 202F
ENCODING 8239
SWIDTH 168 0
DWIDTH 15 0
BBX 0 0 0 0
BITMAP
ENDCHAR
STARTCHAR 205F
ENCODING 8287
SWIDTH 213 0
DWIDTH 19 0
BBX 0 0 0 0
BITMAP
ENDCHAR
STARTCHAR 20AC
ENCODING 8364
SWIDTH 450 0
DWIDTH 40 0
BBX 30 62 5 0
BITMAP
01FFFFF0
03FFFFF8
07FFFFFC
07FFFFFC
03FFFFF8
31FFFFF0
78000000
FC000000
FC000000
FC000000
FC000000
FC000000
FC000000
FC000000
FC000000
FC0FFE00
FC1FFF00
FC3FFF80
FC3FFF80
FC1FFF00
FC0FFE00
FC000000
FC000000
FC000000
FC000000
FC000000
FC000000
78000000
31FFFFF0
03FFFFF8
07FFFFFC
07FFFFFC
03FFFFF8
31FFFFF0
78000000
FC000000
FC000000
FC000000
FC000000
FC000000
FC000000
FC0FFE00
FC1FFF00
FC3FFF80
FC3FFF80
FC1FFF00
FC0FFE00
FC000000
FC000000
FC000000
FC000000
FC000000
FC000000
FC000000
FC000000
78000000
31FFFFF0
03FFFFF8
07FFFFFC
07FFFFFC
03FFFFF8
01FFFFF0
ENDCHAR
STARTCHAR 25FC
ENCODING 9724
SWIDTH 697 0
DWIDTH 62 0
BBX 62 62 0 0
BITMAP
FFFFFFFFFFFFFFFC
FFFFFFFFFFFFFFFC
FFFFFFFFFFFFFFFC
FFFFFFFFFFFFFFFC
FFFFFFFFFFFFFFFC
FFFFFFFFFFFFFFFC
FFFFFFFFFFFFFFFC
FFFFFFFFFFFFFFFC
FFFFFFFFFFFFFFFC
FFFFFFFFFFFFFFFC
FFFFFFFFFFFFFFFC
FFFFFFFFFFFFFFFC
FFFFFFFFFFFFFFFC
FFFFFFFFFFFFFFFC
FFFFFFFFFFFFFFFC
FFFFFFFFFFFFFFFC
FFFFFFFFFFFFFFFC
FFFFFFFFFFFFFFFC
FFFFFFFFFFFFFFFC
FFFFFFFFFFFFFFFC
FFFFFFFFFFFFFFFC
FFFFFFFFFFFFFFFC
FFFFFFFFFFFFFFFC
FFFFFFFFFFFFFFFC
FFFFFFFFFFFFFFFC
FFFFFFFFFFFFFFFC
FFFFFFFFFFFFFFFC
FFFFFFFFFFFFFFFC
FFFFFFFFFFFFFFFC
FFFFFFFFFFFFFFFC
FFFFFFFFFFFFFFFC
FFFFFFFFFFFFFFFC
FFFFFFFFFFFFFFFC
FFFFFFFFFFFFFFFC
FFFFFFFFFFFFFFFC
FFFFFFFFFFFFFFFC
FFFFFFFFFFFFFFFC
FFFFFFFFFFFFFFFC
FFFFFFFFFFFFFFFC
FFFFFFFFFFFFFFFC
FFFFFFFFFFFFFFFC
FFFFFFFFFFFFFFFC
FFFFFFFFFFFFFFFC
FFFFFFFFFFFFFFFC
FFFFFFFFFFFFFFFC
FFFFFFFFFFFFFFFC
FFFFFFFFFFFFFFFC
FFFFFFFFFFFFFFFC
FFFFFFFFFFFFFFFC
FFFFFFFFFFFFFFFC
FFFFFFFFFFFFFFFC
FFFFFFFFFFFFFFFC
FFFFFFFFFFFFFFFC
FFFFFFFFFFFFFFFC
FFFFFFFFFFFFFFFC
FFFFFFFFFFFFFFFC
FFFFFFFFFFFFFFFC
FFFFFFFFFFFFFFFC
FFFFFFFFFFFFFFFC
FFFFFFFFFFFFFFFC
FFFFFFFFFFFFFFFC
FFFFFFFFFFFFFFFC
ENDCHAR
ENDFONT
